<?xml version="1.0" encoding="utf-8" standalone="no"?>
<!DOCTYPE svg PUBLIC "-//W3C//DTD SVG 1.1//EN"
  "http://www.w3.org/Graphics/SVG/1.1/DTD/svg11.dtd">
<svg xmlns:xlink="http://www.w3.org/1999/xlink" width="504pt" height="720pt" viewBox="0 0 504 720" xmlns="http://www.w3.org/2000/svg" version="1.1">
 <metadata>
  <rdf:RDF xmlns:dc="http://purl.org/dc/elements/1.1/" xmlns:cc="http://creativecommons.org/ns#" xmlns:rdf="http://www.w3.org/1999/02/22-rdf-syntax-ns#">
   <cc:Work>
    <dc:type rdf:resource="http://purl.org/dc/dcmitype/StillImage"/>
    <dc:date>2026-04-20T12:06:33.697160</dc:date>
    <dc:format>image/svg+xml</dc:format>
    <dc:creator>
     <cc:Agent>
      <dc:title>Matplotlib v3.10.8, https://matplotlib.org/</dc:title>
     </cc:Agent>
    </dc:creator>
   </cc:Work>
  </rdf:RDF>
 </metadata>
 <defs>
  <style type="text/css">*{stroke-linejoin: round; stroke-linecap: butt}</style>
 </defs>
 <g id="figure_1">
  <g id="patch_1">
   <path d="M 0 720 
L 504 720 
L 504 0 
L 0 0 
z
" style="fill: #ffffff"/>
  </g>
  <g id="axes_1">
   <g id="patch_2">
    <path d="M 59.24 220.42299 
L 493.2 220.42299 
L 493.2 36 
L 59.24 36 
z
" style="fill: #ffffff"/>
   </g>
   <g id="matplotlib.axis_1">
    <g id="xtick_1">
     <g id="line2d_1">
      <path d="M 78.965455 220.42299 
L 78.965455 36 
" clip-path="url(#pdcf5c4644e)" style="fill: none; stroke: #b0b0b0; stroke-width: 0.8; stroke-linecap: square"/>
     </g>
     <g id="line2d_2">
      <defs>
       <path id="m22191671df" d="M 0 0 
L 0 3.5 
" style="stroke: #000000; stroke-width: 0.8"/>
      </defs>
      <g>
       <use xlink:href="#m22191671df" x="78.965455" y="220.42299" style="stroke: #000000; stroke-width: 0.8"/>
      </g>
     </g>
     <g id="text_1">
      <!-- 0 -->
      <g transform="translate(75.784205 235.021428) scale(0.1 -0.1)">
       <defs>
        <path id="DejaVuSans-30" d="M 2034 4250 
Q 1547 4250 1301 3770 
Q 1056 3291 1056 2328 
Q 1056 1369 1301 889 
Q 1547 409 2034 409 
Q 2525 409 2770 889 
Q 3016 1369 3016 2328 
Q 3016 3291 2770 3770 
Q 2525 4250 2034 4250 
z
M 2034 4750 
Q 2819 4750 3233 4129 
Q 3647 3509 3647 2328 
Q 3647 1150 3233 529 
Q 2819 -91 2034 -91 
Q 1250 -91 836 529 
Q 422 1150 422 2328 
Q 422 3509 836 4129 
Q 1250 4750 2034 4750 
z
" transform="scale(0.015625)"/>
       </defs>
       <use xlink:href="#DejaVuSans-30"/>
      </g>
     </g>
    </g>
    <g id="xtick_2">
     <g id="line2d_3">
      <path d="M 166.623305 220.42299 
L 166.623305 36 
" clip-path="url(#pdcf5c4644e)" style="fill: none; stroke: #b0b0b0; stroke-width: 0.8; stroke-linecap: square"/>
     </g>
     <g id="line2d_4">
      <g>
       <use xlink:href="#m22191671df" x="166.623305" y="220.42299" style="stroke: #000000; stroke-width: 0.8"/>
      </g>
     </g>
     <g id="text_2">
      <!-- 50 -->
      <g transform="translate(160.260805 235.021428) scale(0.1 -0.1)">
       <defs>
        <path id="DejaVuSans-35" d="M 691 4666 
L 3169 4666 
L 3169 4134 
L 1269 4134 
L 1269 2991 
Q 1406 3038 1543 3061 
Q 1681 3084 1819 3084 
Q 2600 3084 3056 2656 
Q 3513 2228 3513 1497 
Q 3513 744 3044 326 
Q 2575 -91 1722 -91 
Q 1428 -91 1123 -41 
Q 819 9 494 109 
L 494 744 
Q 775 591 1075 516 
Q 1375 441 1709 441 
Q 2250 441 2565 725 
Q 2881 1009 2881 1497 
Q 2881 1984 2565 2268 
Q 2250 2553 1709 2553 
Q 1456 2553 1204 2497 
Q 953 2441 691 2322 
L 691 4666 
z
" transform="scale(0.015625)"/>
       </defs>
       <use xlink:href="#DejaVuSans-35"/>
       <use xlink:href="#DejaVuSans-30" transform="translate(63.623047 0)"/>
      </g>
     </g>
    </g>
    <g id="xtick_3">
     <g id="line2d_5">
      <path d="M 254.281156 220.42299 
L 254.281156 36 
" clip-path="url(#pdcf5c4644e)" style="fill: none; stroke: #b0b0b0; stroke-width: 0.8; stroke-linecap: square"/>
     </g>
     <g id="line2d_6">
      <g>
       <use xlink:href="#m22191671df" x="254.281156" y="220.42299" style="stroke: #000000; stroke-width: 0.8"/>
      </g>
     </g>
     <g id="text_3">
      <!-- 100 -->
      <g transform="translate(244.737406 235.021428) scale(0.1 -0.1)">
       <defs>
        <path id="DejaVuSans-31" d="M 794 531 
L 1825 531 
L 1825 4091 
L 703 3866 
L 703 4441 
L 1819 4666 
L 2450 4666 
L 2450 531 
L 3481 531 
L 3481 0 
L 794 0 
L 794 531 
z
" transform="scale(0.015625)"/>
       </defs>
       <use xlink:href="#DejaVuSans-31"/>
       <use xlink:href="#DejaVuSans-30" transform="translate(63.623047 0)"/>
       <use xlink:href="#DejaVuSans-30" transform="translate(127.246094 0)"/>
      </g>
     </g>
    </g>
    <g id="xtick_4">
     <g id="line2d_7">
      <path d="M 341.939007 220.42299 
L 341.939007 36 
" clip-path="url(#pdcf5c4644e)" style="fill: none; stroke: #b0b0b0; stroke-width: 0.8; stroke-linecap: square"/>
     </g>
     <g id="line2d_8">
      <g>
       <use xlink:href="#m22191671df" x="341.939007" y="220.42299" style="stroke: #000000; stroke-width: 0.8"/>
      </g>
     </g>
     <g id="text_4">
      <!-- 150 -->
      <g transform="translate(332.395257 235.021428) scale(0.1 -0.1)">
       <use xlink:href="#DejaVuSans-31"/>
       <use xlink:href="#DejaVuSans-35" transform="translate(63.623047 0)"/>
       <use xlink:href="#DejaVuSans-30" transform="translate(127.246094 0)"/>
      </g>
     </g>
    </g>
    <g id="xtick_5">
     <g id="line2d_9">
      <path d="M 429.596857 220.42299 
L 429.596857 36 
" clip-path="url(#pdcf5c4644e)" style="fill: none; stroke: #b0b0b0; stroke-width: 0.8; stroke-linecap: square"/>
     </g>
     <g id="line2d_10">
      <g>
       <use xlink:href="#m22191671df" x="429.596857" y="220.42299" style="stroke: #000000; stroke-width: 0.8"/>
      </g>
     </g>
     <g id="text_5">
      <!-- 200 -->
      <g transform="translate(420.053107 235.021428) scale(0.1 -0.1)">
       <defs>
        <path id="DejaVuSans-32" d="M 1228 531 
L 3431 531 
L 3431 0 
L 469 0 
L 469 531 
Q 828 903 1448 1529 
Q 2069 2156 2228 2338 
Q 2531 2678 2651 2914 
Q 2772 3150 2772 3378 
Q 2772 3750 2511 3984 
Q 2250 4219 1831 4219 
Q 1534 4219 1204 4116 
Q 875 4013 500 3803 
L 500 4441 
Q 881 4594 1212 4672 
Q 1544 4750 1819 4750 
Q 2544 4750 2975 4387 
Q 3406 4025 3406 3419 
Q 3406 3131 3298 2873 
Q 3191 2616 2906 2266 
Q 2828 2175 2409 1742 
Q 1991 1309 1228 531 
z
" transform="scale(0.015625)"/>
       </defs>
       <use xlink:href="#DejaVuSans-32"/>
       <use xlink:href="#DejaVuSans-30" transform="translate(63.623047 0)"/>
       <use xlink:href="#DejaVuSans-30" transform="translate(127.246094 0)"/>
      </g>
     </g>
    </g>
    <g id="text_6">
     <!-- Time (s) -->
     <g transform="translate(255.891094 248.699553) scale(0.1 -0.1)">
      <defs>
       <path id="DejaVuSans-54" d="M -19 4666 
L 3928 4666 
L 3928 4134 
L 2272 4134 
L 2272 0 
L 1638 0 
L 1638 4134 
L -19 4134 
L -19 4666 
z
" transform="scale(0.015625)"/>
       <path id="DejaVuSans-69" d="M 603 3500 
L 1178 3500 
L 1178 0 
L 603 0 
L 603 3500 
z
M 603 4863 
L 1178 4863 
L 1178 4134 
L 603 4134 
L 603 4863 
z
" transform="scale(0.015625)"/>
       <path id="DejaVuSans-6d" d="M 3328 2828 
Q 3544 3216 3844 3400 
Q 4144 3584 4550 3584 
Q 5097 3584 5394 3201 
Q 5691 2819 5691 2113 
L 5691 0 
L 5113 0 
L 5113 2094 
Q 5113 2597 4934 2840 
Q 4756 3084 4391 3084 
Q 3944 3084 3684 2787 
Q 3425 2491 3425 1978 
L 3425 0 
L 2847 0 
L 2847 2094 
Q 2847 2600 2669 2842 
Q 2491 3084 2119 3084 
Q 1678 3084 1418 2786 
Q 1159 2488 1159 1978 
L 1159 0 
L 581 0 
L 581 3500 
L 1159 3500 
L 1159 2956 
Q 1356 3278 1631 3431 
Q 1906 3584 2284 3584 
Q 2666 3584 2933 3390 
Q 3200 3197 3328 2828 
z
" transform="scale(0.015625)"/>
       <path id="DejaVuSans-65" d="M 3597 1894 
L 3597 1613 
L 953 1613 
Q 991 1019 1311 708 
Q 1631 397 2203 397 
Q 2534 397 2845 478 
Q 3156 559 3463 722 
L 3463 178 
Q 3153 47 2828 -22 
Q 2503 -91 2169 -91 
Q 1331 -91 842 396 
Q 353 884 353 1716 
Q 353 2575 817 3079 
Q 1281 3584 2069 3584 
Q 2775 3584 3186 3129 
Q 3597 2675 3597 1894 
z
M 3022 2063 
Q 3016 2534 2758 2815 
Q 2500 3097 2075 3097 
Q 1594 3097 1305 2825 
Q 1016 2553 972 2059 
L 3022 2063 
z
" transform="scale(0.015625)"/>
       <path id="DejaVuSans-20" transform="scale(0.015625)"/>
       <path id="DejaVuSans-28" d="M 1984 4856 
Q 1566 4138 1362 3434 
Q 1159 2731 1159 2009 
Q 1159 1288 1364 580 
Q 1569 -128 1984 -844 
L 1484 -844 
Q 1016 -109 783 600 
Q 550 1309 550 2009 
Q 550 2706 781 3412 
Q 1013 4119 1484 4856 
L 1984 4856 
z
" transform="scale(0.015625)"/>
       <path id="DejaVuSans-73" d="M 2834 3397 
L 2834 2853 
Q 2591 2978 2328 3040 
Q 2066 3103 1784 3103 
Q 1356 3103 1142 2972 
Q 928 2841 928 2578 
Q 928 2378 1081 2264 
Q 1234 2150 1697 2047 
L 1894 2003 
Q 2506 1872 2764 1633 
Q 3022 1394 3022 966 
Q 3022 478 2636 193 
Q 2250 -91 1575 -91 
Q 1294 -91 989 -36 
Q 684 19 347 128 
L 347 722 
Q 666 556 975 473 
Q 1284 391 1588 391 
Q 1994 391 2212 530 
Q 2431 669 2431 922 
Q 2431 1156 2273 1281 
Q 2116 1406 1581 1522 
L 1381 1569 
Q 847 1681 609 1914 
Q 372 2147 372 2553 
Q 372 3047 722 3315 
Q 1072 3584 1716 3584 
Q 2034 3584 2315 3537 
Q 2597 3491 2834 3397 
z
" transform="scale(0.015625)"/>
       <path id="DejaVuSans-29" d="M 513 4856 
L 1013 4856 
Q 1481 4119 1714 3412 
Q 1947 2706 1947 2009 
Q 1947 1309 1714 600 
Q 1481 -109 1013 -844 
L 513 -844 
Q 928 -128 1133 580 
Q 1338 1288 1338 2009 
Q 1338 2731 1133 3434 
Q 928 4138 513 4856 
z
" transform="scale(0.015625)"/>
      </defs>
      <use xlink:href="#DejaVuSans-54"/>
      <use xlink:href="#DejaVuSans-69" transform="translate(57.958984 0)"/>
      <use xlink:href="#DejaVuSans-6d" transform="translate(85.742188 0)"/>
      <use xlink:href="#DejaVuSans-65" transform="translate(183.154297 0)"/>
      <use xlink:href="#DejaVuSans-20" transform="translate(244.677734 0)"/>
      <use xlink:href="#DejaVuSans-28" transform="translate(276.464844 0)"/>
      <use xlink:href="#DejaVuSans-73" transform="translate(315.478516 0)"/>
      <use xlink:href="#DejaVuSans-29" transform="translate(367.578125 0)"/>
     </g>
    </g>
   </g>
   <g id="matplotlib.axis_2">
    <g id="ytick_1">
     <g id="line2d_11">
      <path d="M 59.24 211.761694 
L 493.2 211.761694 
" clip-path="url(#pdcf5c4644e)" style="fill: none; stroke: #b0b0b0; stroke-width: 0.8; stroke-linecap: square"/>
     </g>
     <g id="line2d_12">
      <defs>
       <path id="m9eb5004168" d="M 0 0 
L -3.5 0 
" style="stroke: #000000; stroke-width: 0.8"/>
      </defs>
      <g>
       <use xlink:href="#m9eb5004168" x="59.24" y="211.761694" style="stroke: #000000; stroke-width: 0.8"/>
      </g>
     </g>
     <g id="text_7">
      <!-- 0 -->
      <g transform="translate(45.8775 215.560912) scale(0.1 -0.1)">
       <use xlink:href="#DejaVuSans-30"/>
      </g>
     </g>
    </g>
    <g id="ytick_2">
     <g id="line2d_13">
      <path d="M 59.24 172.853006 
L 493.2 172.853006 
" clip-path="url(#pdcf5c4644e)" style="fill: none; stroke: #b0b0b0; stroke-width: 0.8; stroke-linecap: square"/>
     </g>
     <g id="line2d_14">
      <g>
       <use xlink:href="#m9eb5004168" x="59.24" y="172.853006" style="stroke: #000000; stroke-width: 0.8"/>
      </g>
     </g>
     <g id="text_8">
      <!-- 2 -->
      <g transform="translate(45.8775 176.652225) scale(0.1 -0.1)">
       <use xlink:href="#DejaVuSans-32"/>
      </g>
     </g>
    </g>
    <g id="ytick_3">
     <g id="line2d_15">
      <path d="M 59.24 133.944318 
L 493.2 133.944318 
" clip-path="url(#pdcf5c4644e)" style="fill: none; stroke: #b0b0b0; stroke-width: 0.8; stroke-linecap: square"/>
     </g>
     <g id="line2d_16">
      <g>
       <use xlink:href="#m9eb5004168" x="59.24" y="133.944318" style="stroke: #000000; stroke-width: 0.8"/>
      </g>
     </g>
     <g id="text_9">
      <!-- 4 -->
      <g transform="translate(45.8775 137.743537) scale(0.1 -0.1)">
       <defs>
        <path id="DejaVuSans-34" d="M 2419 4116 
L 825 1625 
L 2419 1625 
L 2419 4116 
z
M 2253 4666 
L 3047 4666 
L 3047 1625 
L 3713 1625 
L 3713 1100 
L 3047 1100 
L 3047 0 
L 2419 0 
L 2419 1100 
L 313 1100 
L 313 1709 
L 2253 4666 
z
" transform="scale(0.015625)"/>
       </defs>
       <use xlink:href="#DejaVuSans-34"/>
      </g>
     </g>
    </g>
    <g id="ytick_4">
     <g id="line2d_17">
      <path d="M 59.24 95.035631 
L 493.2 95.035631 
" clip-path="url(#pdcf5c4644e)" style="fill: none; stroke: #b0b0b0; stroke-width: 0.8; stroke-linecap: square"/>
     </g>
     <g id="line2d_18">
      <g>
       <use xlink:href="#m9eb5004168" x="59.24" y="95.035631" style="stroke: #000000; stroke-width: 0.8"/>
      </g>
     </g>
     <g id="text_10">
      <!-- 6 -->
      <g transform="translate(45.8775 98.83485) scale(0.1 -0.1)">
       <defs>
        <path id="DejaVuSans-36" d="M 2113 2584 
Q 1688 2584 1439 2293 
Q 1191 2003 1191 1497 
Q 1191 994 1439 701 
Q 1688 409 2113 409 
Q 2538 409 2786 701 
Q 3034 994 3034 1497 
Q 3034 2003 2786 2293 
Q 2538 2584 2113 2584 
z
M 3366 4563 
L 3366 3988 
Q 3128 4100 2886 4159 
Q 2644 4219 2406 4219 
Q 1781 4219 1451 3797 
Q 1122 3375 1075 2522 
Q 1259 2794 1537 2939 
Q 1816 3084 2150 3084 
Q 2853 3084 3261 2657 
Q 3669 2231 3669 1497 
Q 3669 778 3244 343 
Q 2819 -91 2113 -91 
Q 1303 -91 875 529 
Q 447 1150 447 2328 
Q 447 3434 972 4092 
Q 1497 4750 2381 4750 
Q 2619 4750 2861 4703 
Q 3103 4656 3366 4563 
z
" transform="scale(0.015625)"/>
       </defs>
       <use xlink:href="#DejaVuSans-36"/>
      </g>
     </g>
    </g>
    <g id="ytick_5">
     <g id="line2d_19">
      <path d="M 59.24 56.126943 
L 493.2 56.126943 
" clip-path="url(#pdcf5c4644e)" style="fill: none; stroke: #b0b0b0; stroke-width: 0.8; stroke-linecap: square"/>
     </g>
     <g id="line2d_20">
      <g>
       <use xlink:href="#m9eb5004168" x="59.24" y="56.126943" style="stroke: #000000; stroke-width: 0.8"/>
      </g>
     </g>
     <g id="text_11">
      <!-- 8 -->
      <g transform="translate(45.8775 59.926162) scale(0.1 -0.1)">
       <defs>
        <path id="DejaVuSans-38" d="M 2034 2216 
Q 1584 2216 1326 1975 
Q 1069 1734 1069 1313 
Q 1069 891 1326 650 
Q 1584 409 2034 409 
Q 2484 409 2743 651 
Q 3003 894 3003 1313 
Q 3003 1734 2745 1975 
Q 2488 2216 2034 2216 
z
M 1403 2484 
Q 997 2584 770 2862 
Q 544 3141 544 3541 
Q 544 4100 942 4425 
Q 1341 4750 2034 4750 
Q 2731 4750 3128 4425 
Q 3525 4100 3525 3541 
Q 3525 3141 3298 2862 
Q 3072 2584 2669 2484 
Q 3125 2378 3379 2068 
Q 3634 1759 3634 1313 
Q 3634 634 3220 271 
Q 2806 -91 2034 -91 
Q 1263 -91 848 271 
Q 434 634 434 1313 
Q 434 1759 690 2068 
Q 947 2378 1403 2484 
z
M 1172 3481 
Q 1172 3119 1398 2916 
Q 1625 2713 2034 2713 
Q 2441 2713 2670 2916 
Q 2900 3119 2900 3481 
Q 2900 3844 2670 4047 
Q 2441 4250 2034 4250 
Q 1625 4250 1398 4047 
Q 1172 3844 1172 3481 
z
" transform="scale(0.015625)"/>
       </defs>
       <use xlink:href="#DejaVuSans-38"/>
      </g>
     </g>
    </g>
    <g id="text_12">
     <!-- Spin Angle - φ (°) -->
     <g transform="translate(39.797813 171.206808) rotate(-90) scale(0.1 -0.1)">
      <defs>
       <path id="DejaVuSans-53" d="M 3425 4513 
L 3425 3897 
Q 3066 4069 2747 4153 
Q 2428 4238 2131 4238 
Q 1616 4238 1336 4038 
Q 1056 3838 1056 3469 
Q 1056 3159 1242 3001 
Q 1428 2844 1947 2747 
L 2328 2669 
Q 3034 2534 3370 2195 
Q 3706 1856 3706 1288 
Q 3706 609 3251 259 
Q 2797 -91 1919 -91 
Q 1588 -91 1214 -16 
Q 841 59 441 206 
L 441 856 
Q 825 641 1194 531 
Q 1563 422 1919 422 
Q 2459 422 2753 634 
Q 3047 847 3047 1241 
Q 3047 1584 2836 1778 
Q 2625 1972 2144 2069 
L 1759 2144 
Q 1053 2284 737 2584 
Q 422 2884 422 3419 
Q 422 4038 858 4394 
Q 1294 4750 2059 4750 
Q 2388 4750 2728 4690 
Q 3069 4631 3425 4513 
z
" transform="scale(0.015625)"/>
       <path id="DejaVuSans-70" d="M 1159 525 
L 1159 -1331 
L 581 -1331 
L 581 3500 
L 1159 3500 
L 1159 2969 
Q 1341 3281 1617 3432 
Q 1894 3584 2278 3584 
Q 2916 3584 3314 3078 
Q 3713 2572 3713 1747 
Q 3713 922 3314 415 
Q 2916 -91 2278 -91 
Q 1894 -91 1617 61 
Q 1341 213 1159 525 
z
M 3116 1747 
Q 3116 2381 2855 2742 
Q 2594 3103 2138 3103 
Q 1681 3103 1420 2742 
Q 1159 2381 1159 1747 
Q 1159 1113 1420 752 
Q 1681 391 2138 391 
Q 2594 391 2855 752 
Q 3116 1113 3116 1747 
z
" transform="scale(0.015625)"/>
       <path id="DejaVuSans-6e" d="M 3513 2113 
L 3513 0 
L 2938 0 
L 2938 2094 
Q 2938 2591 2744 2837 
Q 2550 3084 2163 3084 
Q 1697 3084 1428 2787 
Q 1159 2491 1159 1978 
L 1159 0 
L 581 0 
L 581 3500 
L 1159 3500 
L 1159 2956 
Q 1366 3272 1645 3428 
Q 1925 3584 2291 3584 
Q 2894 3584 3203 3211 
Q 3513 2838 3513 2113 
z
" transform="scale(0.015625)"/>
       <path id="DejaVuSans-41" d="M 2188 4044 
L 1331 1722 
L 3047 1722 
L 2188 4044 
z
M 1831 4666 
L 2547 4666 
L 4325 0 
L 3669 0 
L 3244 1197 
L 1141 1197 
L 716 0 
L 50 0 
L 1831 4666 
z
" transform="scale(0.015625)"/>
       <path id="DejaVuSans-67" d="M 2906 1791 
Q 2906 2416 2648 2759 
Q 2391 3103 1925 3103 
Q 1463 3103 1205 2759 
Q 947 2416 947 1791 
Q 947 1169 1205 825 
Q 1463 481 1925 481 
Q 2391 481 2648 825 
Q 2906 1169 2906 1791 
z
M 3481 434 
Q 3481 -459 3084 -895 
Q 2688 -1331 1869 -1331 
Q 1566 -1331 1297 -1286 
Q 1028 -1241 775 -1147 
L 775 -588 
Q 1028 -725 1275 -790 
Q 1522 -856 1778 -856 
Q 2344 -856 2625 -561 
Q 2906 -266 2906 331 
L 2906 616 
Q 2728 306 2450 153 
Q 2172 0 1784 0 
Q 1141 0 747 490 
Q 353 981 353 1791 
Q 353 2603 747 3093 
Q 1141 3584 1784 3584 
Q 2172 3584 2450 3431 
Q 2728 3278 2906 2969 
L 2906 3500 
L 3481 3500 
L 3481 434 
z
" transform="scale(0.015625)"/>
       <path id="DejaVuSans-6c" d="M 603 4863 
L 1178 4863 
L 1178 0 
L 603 0 
L 603 4863 
z
" transform="scale(0.015625)"/>
       <path id="DejaVuSans-2d" d="M 313 2009 
L 1997 2009 
L 1997 1497 
L 313 1497 
L 313 2009 
z
" transform="scale(0.015625)"/>
       <path id="DejaVuSans-3c6" d="M 2591 3034 
Q 2388 3034 2388 2581 
L 2388 438 
Q 2684 438 2981 763 
Q 3247 1053 3247 1750 
Q 3247 2400 2978 2750 
Q 2759 3034 2591 3034 
z
M 2591 3525 
Q 3028 3525 3425 3113 
Q 3853 2672 3853 1750 
Q 3853 903 3425 400 
Q 3022 -75 2388 -75 
L 2388 -1331 
L 1816 -1331 
L 1816 -78 
Q 1194 -78 775 400 
Q 350 888 350 1747 
Q 350 2641 775 3097 
Q 1094 3438 1613 3525 
L 1613 3016 
Q 1406 2944 1225 2700 
Q 956 2341 956 1747 
Q 956 1116 1225 756 
Q 1466 434 1816 434 
L 1816 2581 
Q 1816 3525 2591 3525 
z
" transform="scale(0.015625)"/>
       <path id="DejaVuSans-b0" d="M 1600 4347 
Q 1350 4347 1178 4173 
Q 1006 4000 1006 3750 
Q 1006 3503 1178 3333 
Q 1350 3163 1600 3163 
Q 1850 3163 2022 3333 
Q 2194 3503 2194 3750 
Q 2194 3997 2020 4172 
Q 1847 4347 1600 4347 
z
M 1600 4750 
Q 1800 4750 1984 4673 
Q 2169 4597 2303 4453 
Q 2447 4313 2519 4134 
Q 2591 3956 2591 3750 
Q 2591 3338 2302 3052 
Q 2013 2766 1594 2766 
Q 1172 2766 890 3047 
Q 609 3328 609 3750 
Q 609 4169 896 4459 
Q 1184 4750 1600 4750 
z
" transform="scale(0.015625)"/>
      </defs>
      <use xlink:href="#DejaVuSans-53"/>
      <use xlink:href="#DejaVuSans-70" transform="translate(63.476562 0)"/>
      <use xlink:href="#DejaVuSans-69" transform="translate(126.953125 0)"/>
      <use xlink:href="#DejaVuSans-6e" transform="translate(154.736328 0)"/>
      <use xlink:href="#DejaVuSans-20" transform="translate(218.115234 0)"/>
      <use xlink:href="#DejaVuSans-41" transform="translate(249.902344 0)"/>
      <use xlink:href="#DejaVuSans-6e" transform="translate(318.310547 0)"/>
      <use xlink:href="#DejaVuSans-67" transform="translate(381.689453 0)"/>
      <use xlink:href="#DejaVuSans-6c" transform="translate(445.166016 0)"/>
      <use xlink:href="#DejaVuSans-65" transform="translate(472.949219 0)"/>
      <use xlink:href="#DejaVuSans-20" transform="translate(534.472656 0)"/>
      <use xlink:href="#DejaVuSans-2d" transform="translate(566.259766 0)"/>
      <use xlink:href="#DejaVuSans-20" transform="translate(602.34375 0)"/>
      <use xlink:href="#DejaVuSans-3c6" transform="translate(634.130859 0)"/>
      <use xlink:href="#DejaVuSans-20" transform="translate(700.097656 0)"/>
      <use xlink:href="#DejaVuSans-28" transform="translate(731.884766 0)"/>
      <use xlink:href="#DejaVuSans-b0" transform="translate(770.898438 0)"/>
      <use xlink:href="#DejaVuSans-29" transform="translate(820.898438 0)"/>
     </g>
    </g>
   </g>
   <g id="line2d_21">
    <path d="M 78.965455 211.32693 
L 79.872535 211.230781 
L 79.984895 210.57175 
L 80.209615 207.213185 
L 80.59619 195.892486 
L 81.193009 178.088554 
L 81.413046 175.87814 
L 81.49405 175.846793 
L 81.656058 176.888219 
L 82.134999 182.237997 
L 82.234483 182.144267 
L 82.458323 179.489317 
L 82.864386 173.603755 
L 82.993084 173.307007 
L 83.026779 173.344627 
L 83.259053 173.826838 
L 83.324827 173.701044 
L 83.456376 172.722951 
L 86.112935 140.211055 
L 87.605519 128.047958 
L 88.575317 121.801863 
L 89.727167 116.098946 
L 94.981757 93.005769 
L 97.237697 83.815994 
L 99.476376 75.461332 
L 101.549383 68.492693 
L 103.378647 63.141546 
L 105.49817 57.709506 
L 107.097468 54.111439 
L 108.553519 51.310714 
L 110.009571 49.014283 
L 111.465622 47.208907 
L 112.643241 46.130215 
L 113.751392 45.399217 
L 114.859543 44.910739 
L 116.0468 44.615778 
L 118.070206 44.401898 
L 120.521064 44.410957 
L 127.386577 44.522407 
L 133.199486 44.598411 
L 469.766567 44.598411 
L 469.766567 44.598411 
" clip-path="url(#pdcf5c4644e)" style="fill: none; stroke: #1f77b4; stroke-width: 1.5; stroke-linecap: square"/>
   </g>
   <g id="line2d_22">
    <path d="M 78.965455 211.872541 
L 79.868587 211.778421 
L 80.012157 210.83375 
L 80.299297 205.655589 
L 80.797855 189.425497 
L 81.198975 178.796431 
L 81.45084 176.845053 
L 81.555143 177.221572 
L 81.746766 179.27323 
L 82.126095 183.58544 
L 82.176514 183.634764 
L 82.277353 183.159918 
L 82.504263 179.836815 
L 82.857244 175.041074 
L 82.974904 174.857449 
L 83.269055 175.555623 
L 83.327885 175.395604 
L 83.523805 173.454779 
L 84.013545 167.713122 
L 84.241058 165.776501 
L 85.734324 147.572106 
L 86.651834 139.904607 
L 87.673198 132.407336 
L 88.658848 126.69543 
L 89.619517 122.340007 
L 91.141227 116.576902 
L 93.471169 106.958774 
L 95.106874 100.387668 
L 98.734592 87.328559 
L 100.747649 80.933931 
L 102.616541 75.636647 
L 104.236119 71.622822 
L 106.34541 66.985922 
L 107.996751 63.895336 
L 109.22188 62.014842 
L 110.672848 60.160102 
L 111.712137 59.141288 
L 112.720258 58.357645 
L 114.020464 57.666176 
L 115.32067 57.279326 
L 116.870948 57.052992 
L 118.84247 57.026827 
L 133.669918 57.304013 
L 468.21724 57.304013 
L 468.21724 57.304013 
" clip-path="url(#pdcf5c4644e)" style="fill: none; stroke: #ff7f0e; stroke-width: 1.5; stroke-linecap: square"/>
   </g>
   <g id="line2d_23">
    <path d="M 78.965455 211.764413 
L 79.858483 211.702067 
L 80.013133 210.984678 
L 80.322434 206.935149 
L 80.872866 194.272405 
L 81.260965 187.945759 
L 81.43487 187.162166 
L 81.495417 187.203795 
L 81.664949 188.03717 
L 82.143948 191.040416 
L 82.266919 190.490057 
L 82.554279 187.106959 
L 82.857619 184.478785 
L 82.978955 184.330327 
L 83.170565 184.419889 
L 83.281075 184.137411 
L 83.44684 182.821219 
L 85.571295 159.522576 
L 86.807599 149.82206 
L 87.976815 142.238882 
L 88.969919 137.255784 
L 90.08053 132.789887 
L 92.77052 122.299294 
L 94.292708 116.374662 
L 97.354188 105.290526 
L 98.11492 102.72713 
L 98.950632 100.140331 
L 102.006947 91.206249 
L 105.662061 82.758437 
L 108.580056 77.603265 
L 109.802777 75.870397 
L 111.797466 73.84005 
L 112.454208 73.382627 
L 114.752806 72.336689 
L 115.852133 72.190737 
L 118.785406 71.971 
L 122.802185 72.016716 
L 129.303816 72.022967 
L 460.8297 72.121899 
L 465.621143 72.121899 
L 465.621143 72.121899 
" clip-path="url(#pdcf5c4644e)" style="fill: none; stroke: #2ca02c; stroke-width: 1.5; stroke-linecap: square"/>
   </g>
   <g id="line2d_24">
    <path d="M 78.965455 211.684642 
L 79.873964 211.629358 
L 80.001559 211.170465 
L 80.25675 208.709412 
L 80.668592 200.894665 
L 81.26522 189.426758 
L 81.527125 187.841049 
L 81.634097 187.964294 
L 81.805669 188.892497 
L 82.193268 191.45111 
L 82.257868 191.498392 
L 82.410098 190.873556 
L 83.18536 184.869821 
L 83.325219 184.860216 
L 83.465079 184.467157 
L 83.682186 182.576385 
L 84.278263 176.739069 
L 84.630603 172.652368 
L 85.239395 165.989208 
L 85.908475 159.939256 
L 87.308605 150.137938 
L 88.520126 143.380285 
L 89.533595 139.073309 
L 91.215524 133.187956 
L 92.993326 126.583268 
L 95.70462 117.035007 
L 100.301943 102.945949 
L 103.042798 96.002427 
L 104.366893 93.170855 
L 106.538417 88.922261 
L 108.900152 85.118874 
L 110.463926 83.218771 
L 111.700098 81.899136 
L 112.93627 80.979795 
L 114.5845 80.023454 
L 115.630831 79.618357 
L 119.206765 79.042634 
L 225.664951 79.077165 
L 462.077829 79.077165 
L 462.077829 79.077165 
" clip-path="url(#pdcf5c4644e)" style="fill: none; stroke: #d62728; stroke-width: 1.5; stroke-linecap: square"/>
   </g>
   <g id="line2d_25">
    <path d="M 78.965455 211.34917 
L 79.885457 211.281621 
L 80.044609 210.504366 
L 80.362912 206.107622 
L 80.867148 193.754461 
L 81.245201 186.06773 
L 81.502738 184.19583 
L 81.558973 184.203702 
L 81.675026 184.639773 
L 82.007735 187.689793 
L 82.219297 188.971678 
L 82.272795 188.980135 
L 82.379791 188.532779 
L 82.617841 185.770833 
L 82.953334 182.085637 
L 83.11509 181.777507 
L 83.374647 182.056016 
L 83.490708 181.655316 
L 83.722831 179.273684 
L 84.151525 175.010511 
L 84.434774 172.598731 
L 85.484153 160.611846 
L 86.169729 155.056533 
L 87.182771 148.107203 
L 88.448874 140.888117 
L 89.345421 136.997179 
L 90.525953 132.819371 
L 91.929029 127.987747 
L 93.532595 122.070461 
L 98.560014 105.538984 
L 102.328304 95.46427 
L 103.516899 92.753717 
L 107.059058 85.917134 
L 108.910447 83.208133 
L 109.817292 82.132032 
L 111.830084 80.256333 
L 112.743622 79.710698 
L 114.472407 79.012367 
L 115.509677 78.7924 
L 117.789048 78.663323 
L 119.919176 78.684089 
L 123.588078 78.811052 
L 138.855414 78.909938 
L 472.615662 78.909938 
L 472.615662 78.909938 
" clip-path="url(#pdcf5c4644e)" style="fill: none; stroke: #9467bd; stroke-width: 1.5; stroke-linecap: square"/>
   </g>
   <g id="line2d_26">
    <path d="M 78.965455 212.040127 
L 79.865346 211.965177 
L 79.983768 211.402631 
L 80.220611 208.463115 
L 80.623392 198.594535 
L 81.201521 184.413498 
L 81.40919 182.739919 
L 81.46872 182.701832 
L 81.577704 183.102 
L 81.799135 185.290549 
L 82.125903 188.303115 
L 82.186112 188.337529 
L 82.320893 187.583188 
L 82.99205 180.729222 
L 83.290342 181.209906 
L 83.439487 180.345551 
L 85.697983 156.618661 
L 86.989808 147.172143 
L 88.23055 139.823588 
L 89.081608 135.947365 
L 90.111558 132.152427 
L 93.871232 118.758791 
L 96.294394 110.43644 
L 99.148987 101.657497 
L 101.507866 95.166429 
L 103.270169 90.987724 
L 105.198812 86.993223 
L 106.83723 84.007349 
L 107.964921 82.185747 
L 109.870643 79.647892 
L 111.175013 78.355959 
L 112.339285 77.400204 
L 113.338929 76.815312 
L 114.741063 76.28573 
L 116.158417 75.970682 
L 117.93011 75.855789 
L 121.250012 75.876805 
L 126.716195 75.958329 
L 131.834157 76.02317 
L 133.603605 76.071742 
L 461.275142 76.071742 
L 461.275142 76.071742 
" clip-path="url(#pdcf5c4644e)" style="fill: none; stroke: #8c564b; stroke-width: 1.5; stroke-linecap: square"/>
   </g>
   <g id="line2d_27">
    <path d="M 78.965455 211.760114 
L 79.866871 211.696614 
L 79.995818 211.156241 
L 80.253713 208.256671 
L 80.685399 198.859442 
L 81.189424 188.362355 
L 81.390296 186.79178 
L 81.502225 186.746065 
L 81.670033 187.637617 
L 82.133419 191.342844 
L 82.203768 191.323424 
L 82.357043 190.386487 
L 82.968119 184.802876 
L 83.100157 184.977204 
L 83.232194 185.160918 
L 83.298213 185.092642 
L 83.430251 184.43995 
L 85.143587 167.962721 
L 85.672975 163.446678 
L 86.9645 154.969809 
L 88.241809 148.210968 
L 89.118184 144.693741 
L 90.244381 141.063439 
L 91.913301 135.896224 
L 94.797545 126.509745 
L 97.947246 117.391375 
L 100.589769 110.600326 
L 102.365018 106.619698 
L 104.181816 103.090152 
L 105.980106 99.987316 
L 107.447834 97.782341 
L 109.186214 95.640873 
L 110.491107 94.403734 
L 111.875913 93.381061 
L 112.804024 92.89259 
L 113.975128 92.480976 
L 115.5366 92.175135 
L 117.229532 92.079901 
L 120.977547 92.154959 
L 126.198853 92.246856 
L 131.955334 92.31312 
L 133.741582 92.345308 
L 468.829798 92.345308 
L 468.829798 92.345308 
" clip-path="url(#pdcf5c4644e)" style="fill: none; stroke: #e377c2; stroke-width: 1.5; stroke-linecap: square"/>
   </g>
   <g id="line2d_28">
    <path d="M 78.965455 211.921265 
L 79.875166 211.834228 
L 80.003787 211.105907 
L 80.26103 207.223122 
L 80.681477 195.026254 
L 81.254444 179.264409 
L 81.486322 177.420368 
L 81.567761 177.542616 
L 81.730639 178.795794 
L 82.221202 183.981203 
L 82.317797 183.767697 
L 82.535134 181.178588 
L 82.952567 175.553415 
L 83.069866 175.340721 
L 83.326198 175.901287 
L 83.381515 175.862096 
L 83.49215 175.321687 
L 83.743398 172.089933 
L 84.113692 168.009561 
L 84.376222 165.752339 
L 85.716387 149.735791 
L 87.518573 136.11513 
L 88.41356 130.703315 
L 89.335246 126.374782 
L 90.812289 120.906225 
L 92.660827 113.829909 
L 95.612286 102.513325 
L 98.201614 93.59318 
L 101.650085 83.206267 
L 103.819139 77.789821 
L 106.096946 72.908093 
L 107.749275 69.812677 
L 109.848193 66.660748 
L 111.251515 65.12134 
L 112.543738 63.916214 
L 113.732095 63.186319 
L 115.307235 62.537018 
L 116.642641 62.228071 
L 118.669002 62.090469 
L 121.725702 62.080286 
L 127.767791 62.139737 
L 132.33319 62.21881 
L 463.85058 62.21881 
L 463.85058 62.21881 
" clip-path="url(#pdcf5c4644e)" style="fill: none; stroke: #7f7f7f; stroke-width: 1.5; stroke-linecap: square"/>
   </g>
   <g id="line2d_29">
    <path d="M 78.965455 212.019084 
L 79.880034 211.930128 
L 80.037428 210.909178 
L 80.352216 205.179635 
L 81.475418 177.623275 
L 81.517424 177.63213 
L 81.637355 178.181997 
L 81.897226 181.237588 
L 82.215711 184.146596 
L 82.264638 184.102111 
L 82.411421 182.975944 
L 83.037073 175.391794 
L 83.079685 175.425504 
L 83.358721 175.968033 
L 83.496993 175.247811 
L 83.768226 171.513216 
L 84.11689 167.871374 
L 84.350407 165.821995 
L 85.731149 149.101503 
L 87.453203 135.733699 
L 88.423602 129.817595 
L 89.32603 125.541177 
L 90.527331 120.864552 
L 92.331022 113.787002 
L 95.824587 100.01005 
L 98.067326 92.092542 
L 100.478822 84.359364 
L 102.5496 78.547281 
L 104.308709 74.299942 
L 106.369961 69.874769 
L 108.054886 66.888231 
L 109.348397 64.984585 
L 110.641909 63.476896 
L 112.066583 62.27705 
L 113.091271 61.645191 
L 114.115959 61.231295 
L 115.777129 60.956121 
L 117.989075 60.873535 
L 127.195659 61.267624 
L 133.613373 61.338909 
L 473.474545 61.338909 
L 473.474545 61.338909 
" clip-path="url(#pdcf5c4644e)" style="fill: none; stroke: #bcbd22; stroke-width: 1.5; stroke-linecap: square"/>
   </g>
   <g id="line2d_30">
    <path d="M 78.965455 211.424762 
L 79.875295 211.34391 
L 80.032831 210.415208 
L 80.347904 205.203744 
L 81.413321 181.389428 
L 81.470742 181.363693 
L 81.585584 181.826519 
L 81.854354 184.719401 
L 82.123124 187.094231 
L 82.190317 187.125591 
L 82.324702 186.310063 
L 82.939218 179.389385 
L 82.994929 179.424984 
L 83.2767 179.98991 
L 83.383041 179.565324 
L 83.595724 177.181803 
L 83.984177 173.218532 
L 84.264298 171.055991 
L 85.561565 156.09751 
L 87.019764 145.01197 
L 88.262934 137.426475 
L 89.164402 133.255614 
L 90.21004 129.365151 
L 96.454727 106.755399 
L 100.193634 95.256828 
L 102.005261 90.426413 
L 104.498624 84.685219 
L 105.711431 82.239039 
L 107.810393 78.556219 
L 109.231016 76.571703 
L 110.231465 75.393679 
L 111.637262 74.146667 
L 112.853302 73.32778 
L 113.804103 72.914864 
L 115.435927 72.609054 
L 116.977826 72.373452 
L 118.452255 72.472334 
L 120.195447 72.516518 
L 122.335073 72.594776 
L 125.315463 72.706617 
L 139.354472 72.787291 
L 470.798149 72.787291 
L 470.798149 72.787291 
" clip-path="url(#pdcf5c4644e)" style="fill: none; stroke: #17becf; stroke-width: 1.5; stroke-linecap: square"/>
   </g>
   <g id="patch_3">
    <path d="M 59.24 220.42299 
L 59.24 36 
" style="fill: none; stroke: #000000; stroke-width: 0.8; stroke-linejoin: miter; stroke-linecap: square"/>
   </g>
   <g id="patch_4">
    <path d="M 493.2 220.42299 
L 493.2 36 
" style="fill: none; stroke: #000000; stroke-width: 0.8; stroke-linejoin: miter; stroke-linecap: square"/>
   </g>
   <g id="patch_5">
    <path d="M 59.24 220.42299 
L 493.2 220.42299 
" style="fill: none; stroke: #000000; stroke-width: 0.8; stroke-linejoin: miter; stroke-linecap: square"/>
   </g>
   <g id="patch_6">
    <path d="M 59.24 36 
L 493.2 36 
" style="fill: none; stroke: #000000; stroke-width: 0.8; stroke-linejoin: miter; stroke-linecap: square"/>
   </g>
  </g>
  <g id="axes_2">
   <g id="patch_7">
    <path d="M 59.24 449.231495 
L 493.2 449.231495 
L 493.2 264.808505 
L 59.24 264.808505 
z
" style="fill: #ffffff"/>
   </g>
   <g id="matplotlib.axis_3">
    <g id="xtick_6">
     <g id="line2d_31">
      <path d="M 78.965455 449.231495 
L 78.965455 264.808505 
" clip-path="url(#p4c9a2e647f)" style="fill: none; stroke: #b0b0b0; stroke-width: 0.8; stroke-linecap: square"/>
     </g>
     <g id="line2d_32">
      <g>
       <use xlink:href="#m22191671df" x="78.965455" y="449.231495" style="stroke: #000000; stroke-width: 0.8"/>
      </g>
     </g>
     <g id="text_13">
      <!-- 0 -->
      <g transform="translate(75.784205 463.829933) scale(0.1 -0.1)">
       <use xlink:href="#DejaVuSans-30"/>
      </g>
     </g>
    </g>
    <g id="xtick_7">
     <g id="line2d_33">
      <path d="M 166.623305 449.231495 
L 166.623305 264.808505 
" clip-path="url(#p4c9a2e647f)" style="fill: none; stroke: #b0b0b0; stroke-width: 0.8; stroke-linecap: square"/>
     </g>
     <g id="line2d_34">
      <g>
       <use xlink:href="#m22191671df" x="166.623305" y="449.231495" style="stroke: #000000; stroke-width: 0.8"/>
      </g>
     </g>
     <g id="text_14">
      <!-- 50 -->
      <g transform="translate(160.260805 463.829933) scale(0.1 -0.1)">
       <use xlink:href="#DejaVuSans-35"/>
       <use xlink:href="#DejaVuSans-30" transform="translate(63.623047 0)"/>
      </g>
     </g>
    </g>
    <g id="xtick_8">
     <g id="line2d_35">
      <path d="M 254.281156 449.231495 
L 254.281156 264.808505 
" clip-path="url(#p4c9a2e647f)" style="fill: none; stroke: #b0b0b0; stroke-width: 0.8; stroke-linecap: square"/>
     </g>
     <g id="line2d_36">
      <g>
       <use xlink:href="#m22191671df" x="254.281156" y="449.231495" style="stroke: #000000; stroke-width: 0.8"/>
      </g>
     </g>
     <g id="text_15">
      <!-- 100 -->
      <g transform="translate(244.737406 463.829933) scale(0.1 -0.1)">
       <use xlink:href="#DejaVuSans-31"/>
       <use xlink:href="#DejaVuSans-30" transform="translate(63.623047 0)"/>
       <use xlink:href="#DejaVuSans-30" transform="translate(127.246094 0)"/>
      </g>
     </g>
    </g>
    <g id="xtick_9">
     <g id="line2d_37">
      <path d="M 341.939007 449.231495 
L 341.939007 264.808505 
" clip-path="url(#p4c9a2e647f)" style="fill: none; stroke: #b0b0b0; stroke-width: 0.8; stroke-linecap: square"/>
     </g>
     <g id="line2d_38">
      <g>
       <use xlink:href="#m22191671df" x="341.939007" y="449.231495" style="stroke: #000000; stroke-width: 0.8"/>
      </g>
     </g>
     <g id="text_16">
      <!-- 150 -->
      <g transform="translate(332.395257 463.829933) scale(0.1 -0.1)">
       <use xlink:href="#DejaVuSans-31"/>
       <use xlink:href="#DejaVuSans-35" transform="translate(63.623047 0)"/>
       <use xlink:href="#DejaVuSans-30" transform="translate(127.246094 0)"/>
      </g>
     </g>
    </g>
    <g id="xtick_10">
     <g id="line2d_39">
      <path d="M 429.596857 449.231495 
L 429.596857 264.808505 
" clip-path="url(#p4c9a2e647f)" style="fill: none; stroke: #b0b0b0; stroke-width: 0.8; stroke-linecap: square"/>
     </g>
     <g id="line2d_40">
      <g>
       <use xlink:href="#m22191671df" x="429.596857" y="449.231495" style="stroke: #000000; stroke-width: 0.8"/>
      </g>
     </g>
     <g id="text_17">
      <!-- 200 -->
      <g transform="translate(420.053107 463.829933) scale(0.1 -0.1)">
       <use xlink:href="#DejaVuSans-32"/>
       <use xlink:href="#DejaVuSans-30" transform="translate(63.623047 0)"/>
       <use xlink:href="#DejaVuSans-30" transform="translate(127.246094 0)"/>
      </g>
     </g>
    </g>
    <g id="text_18">
     <!-- Time (s) -->
     <g transform="translate(255.891094 477.508058) scale(0.1 -0.1)">
      <use xlink:href="#DejaVuSans-54"/>
      <use xlink:href="#DejaVuSans-69" transform="translate(57.958984 0)"/>
      <use xlink:href="#DejaVuSans-6d" transform="translate(85.742188 0)"/>
      <use xlink:href="#DejaVuSans-65" transform="translate(183.154297 0)"/>
      <use xlink:href="#DejaVuSans-20" transform="translate(244.677734 0)"/>
      <use xlink:href="#DejaVuSans-28" transform="translate(276.464844 0)"/>
      <use xlink:href="#DejaVuSans-73" transform="translate(315.478516 0)"/>
      <use xlink:href="#DejaVuSans-29" transform="translate(367.578125 0)"/>
     </g>
    </g>
   </g>
   <g id="matplotlib.axis_4">
    <g id="ytick_6">
     <g id="line2d_41">
      <path d="M 59.24 429.032254 
L 493.2 429.032254 
" clip-path="url(#p4c9a2e647f)" style="fill: none; stroke: #b0b0b0; stroke-width: 0.8; stroke-linecap: square"/>
     </g>
     <g id="line2d_42">
      <g>
       <use xlink:href="#m9eb5004168" x="59.24" y="429.032254" style="stroke: #000000; stroke-width: 0.8"/>
      </g>
     </g>
     <g id="text_19">
      <!-- −120 -->
      <g transform="translate(24.772813 432.831472) scale(0.1 -0.1)">
       <defs>
        <path id="DejaVuSans-2212" d="M 678 2272 
L 4684 2272 
L 4684 1741 
L 678 1741 
L 678 2272 
z
" transform="scale(0.015625)"/>
       </defs>
       <use xlink:href="#DejaVuSans-2212"/>
       <use xlink:href="#DejaVuSans-31" transform="translate(83.789062 0)"/>
       <use xlink:href="#DejaVuSans-32" transform="translate(147.412109 0)"/>
       <use xlink:href="#DejaVuSans-30" transform="translate(211.035156 0)"/>
      </g>
     </g>
    </g>
    <g id="ytick_7">
     <g id="line2d_43">
      <path d="M 59.24 401.950885 
L 493.2 401.950885 
" clip-path="url(#p4c9a2e647f)" style="fill: none; stroke: #b0b0b0; stroke-width: 0.8; stroke-linecap: square"/>
     </g>
     <g id="line2d_44">
      <g>
       <use xlink:href="#m9eb5004168" x="59.24" y="401.950885" style="stroke: #000000; stroke-width: 0.8"/>
      </g>
     </g>
     <g id="text_20">
      <!-- −100 -->
      <g transform="translate(24.772813 405.750104) scale(0.1 -0.1)">
       <use xlink:href="#DejaVuSans-2212"/>
       <use xlink:href="#DejaVuSans-31" transform="translate(83.789062 0)"/>
       <use xlink:href="#DejaVuSans-30" transform="translate(147.412109 0)"/>
       <use xlink:href="#DejaVuSans-30" transform="translate(211.035156 0)"/>
      </g>
     </g>
    </g>
    <g id="ytick_8">
     <g id="line2d_45">
      <path d="M 59.24 374.869516 
L 493.2 374.869516 
" clip-path="url(#p4c9a2e647f)" style="fill: none; stroke: #b0b0b0; stroke-width: 0.8; stroke-linecap: square"/>
     </g>
     <g id="line2d_46">
      <g>
       <use xlink:href="#m9eb5004168" x="59.24" y="374.869516" style="stroke: #000000; stroke-width: 0.8"/>
      </g>
     </g>
     <g id="text_21">
      <!-- −80 -->
      <g transform="translate(31.135313 378.668735) scale(0.1 -0.1)">
       <use xlink:href="#DejaVuSans-2212"/>
       <use xlink:href="#DejaVuSans-38" transform="translate(83.789062 0)"/>
       <use xlink:href="#DejaVuSans-30" transform="translate(147.412109 0)"/>
      </g>
     </g>
    </g>
    <g id="ytick_9">
     <g id="line2d_47">
      <path d="M 59.24 347.788147 
L 493.2 347.788147 
" clip-path="url(#p4c9a2e647f)" style="fill: none; stroke: #b0b0b0; stroke-width: 0.8; stroke-linecap: square"/>
     </g>
     <g id="line2d_48">
      <g>
       <use xlink:href="#m9eb5004168" x="59.24" y="347.788147" style="stroke: #000000; stroke-width: 0.8"/>
      </g>
     </g>
     <g id="text_22">
      <!-- −60 -->
      <g transform="translate(31.135313 351.587366) scale(0.1 -0.1)">
       <use xlink:href="#DejaVuSans-2212"/>
       <use xlink:href="#DejaVuSans-36" transform="translate(83.789062 0)"/>
       <use xlink:href="#DejaVuSans-30" transform="translate(147.412109 0)"/>
      </g>
     </g>
    </g>
    <g id="ytick_10">
     <g id="line2d_49">
      <path d="M 59.24 320.706778 
L 493.2 320.706778 
" clip-path="url(#p4c9a2e647f)" style="fill: none; stroke: #b0b0b0; stroke-width: 0.8; stroke-linecap: square"/>
     </g>
     <g id="line2d_50">
      <g>
       <use xlink:href="#m9eb5004168" x="59.24" y="320.706778" style="stroke: #000000; stroke-width: 0.8"/>
      </g>
     </g>
     <g id="text_23">
      <!-- −40 -->
      <g transform="translate(31.135313 324.505997) scale(0.1 -0.1)">
       <use xlink:href="#DejaVuSans-2212"/>
       <use xlink:href="#DejaVuSans-34" transform="translate(83.789062 0)"/>
       <use xlink:href="#DejaVuSans-30" transform="translate(147.412109 0)"/>
      </g>
     </g>
    </g>
    <g id="ytick_11">
     <g id="line2d_51">
      <path d="M 59.24 293.625409 
L 493.2 293.625409 
" clip-path="url(#p4c9a2e647f)" style="fill: none; stroke: #b0b0b0; stroke-width: 0.8; stroke-linecap: square"/>
     </g>
     <g id="line2d_52">
      <g>
       <use xlink:href="#m9eb5004168" x="59.24" y="293.625409" style="stroke: #000000; stroke-width: 0.8"/>
      </g>
     </g>
     <g id="text_24">
      <!-- −20 -->
      <g transform="translate(31.135313 297.424628) scale(0.1 -0.1)">
       <use xlink:href="#DejaVuSans-2212"/>
       <use xlink:href="#DejaVuSans-32" transform="translate(83.789062 0)"/>
       <use xlink:href="#DejaVuSans-30" transform="translate(147.412109 0)"/>
      </g>
     </g>
    </g>
    <g id="ytick_12">
     <g id="line2d_53">
      <path d="M 59.24 266.54404 
L 493.2 266.54404 
" clip-path="url(#p4c9a2e647f)" style="fill: none; stroke: #b0b0b0; stroke-width: 0.8; stroke-linecap: square"/>
     </g>
     <g id="line2d_54">
      <g>
       <use xlink:href="#m9eb5004168" x="59.24" y="266.54404" style="stroke: #000000; stroke-width: 0.8"/>
      </g>
     </g>
     <g id="text_25">
      <!-- 0 -->
      <g transform="translate(45.8775 270.343259) scale(0.1 -0.1)">
       <use xlink:href="#DejaVuSans-30"/>
      </g>
     </g>
    </g>
    <g id="text_26">
     <!-- Nutation Angle - θ (°) -->
     <g transform="translate(18.693125 410.380938) rotate(-90) scale(0.1 -0.1)">
      <defs>
       <path id="DejaVuSans-4e" d="M 628 4666 
L 1478 4666 
L 3547 763 
L 3547 4666 
L 4159 4666 
L 4159 0 
L 3309 0 
L 1241 3903 
L 1241 0 
L 628 0 
L 628 4666 
z
" transform="scale(0.015625)"/>
       <path id="DejaVuSans-75" d="M 544 1381 
L 544 3500 
L 1119 3500 
L 1119 1403 
Q 1119 906 1312 657 
Q 1506 409 1894 409 
Q 2359 409 2629 706 
Q 2900 1003 2900 1516 
L 2900 3500 
L 3475 3500 
L 3475 0 
L 2900 0 
L 2900 538 
Q 2691 219 2414 64 
Q 2138 -91 1772 -91 
Q 1169 -91 856 284 
Q 544 659 544 1381 
z
M 1991 3584 
L 1991 3584 
z
" transform="scale(0.015625)"/>
       <path id="DejaVuSans-74" d="M 1172 4494 
L 1172 3500 
L 2356 3500 
L 2356 3053 
L 1172 3053 
L 1172 1153 
Q 1172 725 1289 603 
Q 1406 481 1766 481 
L 2356 481 
L 2356 0 
L 1766 0 
Q 1100 0 847 248 
Q 594 497 594 1153 
L 594 3053 
L 172 3053 
L 172 3500 
L 594 3500 
L 594 4494 
L 1172 4494 
z
" transform="scale(0.015625)"/>
       <path id="DejaVuSans-61" d="M 2194 1759 
Q 1497 1759 1228 1600 
Q 959 1441 959 1056 
Q 959 750 1161 570 
Q 1363 391 1709 391 
Q 2188 391 2477 730 
Q 2766 1069 2766 1631 
L 2766 1759 
L 2194 1759 
z
M 3341 1997 
L 3341 0 
L 2766 0 
L 2766 531 
Q 2569 213 2275 61 
Q 1981 -91 1556 -91 
Q 1019 -91 701 211 
Q 384 513 384 1019 
Q 384 1609 779 1909 
Q 1175 2209 1959 2209 
L 2766 2209 
L 2766 2266 
Q 2766 2663 2505 2880 
Q 2244 3097 1772 3097 
Q 1472 3097 1187 3025 
Q 903 2953 641 2809 
L 641 3341 
Q 956 3463 1253 3523 
Q 1550 3584 1831 3584 
Q 2591 3584 2966 3190 
Q 3341 2797 3341 1997 
z
" transform="scale(0.015625)"/>
       <path id="DejaVuSans-6f" d="M 1959 3097 
Q 1497 3097 1228 2736 
Q 959 2375 959 1747 
Q 959 1119 1226 758 
Q 1494 397 1959 397 
Q 2419 397 2687 759 
Q 2956 1122 2956 1747 
Q 2956 2369 2687 2733 
Q 2419 3097 1959 3097 
z
M 1959 3584 
Q 2709 3584 3137 3096 
Q 3566 2609 3566 1747 
Q 3566 888 3137 398 
Q 2709 -91 1959 -91 
Q 1206 -91 779 398 
Q 353 888 353 1747 
Q 353 2609 779 3096 
Q 1206 3584 1959 3584 
z
" transform="scale(0.015625)"/>
       <path id="DejaVuSans-3b8" d="M 2953 2219 
L 963 2219 
Q 1009 1284 1225 888 
Q 1494 400 1959 400 
Q 2428 400 2688 891 
Q 2916 1322 2953 2219 
z
M 2944 2750 
Q 2856 3638 2688 3950 
Q 2419 4444 1959 4444 
Q 1481 4444 1228 3956 
Q 1028 3563 969 2750 
L 2944 2750 
z
M 1959 4913 
Q 2709 4913 3138 4250 
Q 3566 3591 3566 2422 
Q 3566 1256 3138 594 
Q 2709 -72 1959 -72 
Q 1206 -72 781 594 
Q 353 1256 353 2422 
Q 353 3591 781 4250 
Q 1206 4913 1959 4913 
z
" transform="scale(0.015625)"/>
      </defs>
      <use xlink:href="#DejaVuSans-4e"/>
      <use xlink:href="#DejaVuSans-75" transform="translate(74.804688 0)"/>
      <use xlink:href="#DejaVuSans-74" transform="translate(138.183594 0)"/>
      <use xlink:href="#DejaVuSans-61" transform="translate(177.392578 0)"/>
      <use xlink:href="#DejaVuSans-74" transform="translate(238.671875 0)"/>
      <use xlink:href="#DejaVuSans-69" transform="translate(277.880859 0)"/>
      <use xlink:href="#DejaVuSans-6f" transform="translate(305.664062 0)"/>
      <use xlink:href="#DejaVuSans-6e" transform="translate(366.845703 0)"/>
      <use xlink:href="#DejaVuSans-20" transform="translate(430.224609 0)"/>
      <use xlink:href="#DejaVuSans-41" transform="translate(462.011719 0)"/>
      <use xlink:href="#DejaVuSans-6e" transform="translate(530.419922 0)"/>
      <use xlink:href="#DejaVuSans-67" transform="translate(593.798828 0)"/>
      <use xlink:href="#DejaVuSans-6c" transform="translate(657.275391 0)"/>
      <use xlink:href="#DejaVuSans-65" transform="translate(685.058594 0)"/>
      <use xlink:href="#DejaVuSans-20" transform="translate(746.582031 0)"/>
      <use xlink:href="#DejaVuSans-2d" transform="translate(778.369141 0)"/>
      <use xlink:href="#DejaVuSans-20" transform="translate(814.453125 0)"/>
      <use xlink:href="#DejaVuSans-3b8" transform="translate(846.240234 0)"/>
      <use xlink:href="#DejaVuSans-20" transform="translate(907.421875 0)"/>
      <use xlink:href="#DejaVuSans-28" transform="translate(939.208984 0)"/>
      <use xlink:href="#DejaVuSans-b0" transform="translate(978.222656 0)"/>
      <use xlink:href="#DejaVuSans-29" transform="translate(1028.222656 0)"/>
     </g>
    </g>
   </g>
   <g id="line2d_55">
    <path d="M 78.965455 273.191368 
L 80.097255 273.268721 
L 80.4703 273.658206 
L 80.907206 274.506503 
L 81.413046 275.3562 
L 81.656058 275.405539 
L 82.433452 275.137159 
L 83.053416 275.600938 
L 83.522151 275.528959 
L 84.081069 275.74676 
L 84.452774 275.780052 
L 84.878988 275.880862 
L 85.347198 275.964696 
L 86.665357 276.150417 
L 89.943836 276.685551 
L 94.118321 277.513744 
L 98.0371 278.58194 
L 101.140488 279.686689 
L 103.999091 280.970735 
L 106.369442 282.278704 
L 108.553519 283.749697 
L 110.373583 285.235731 
L 112.193648 287.030257 
L 113.751392 288.897461 
L 115.228927 291.022865 
L 116.455737 293.136077 
L 117.703578 295.69452 
L 118.803463 298.375097 
L 120.091664 302.175182 
L 120.950464 305.209046 
L 122.10143 310.068611 
L 123.252395 316.073997 
L 124.403361 323.556973 
L 125.332115 330.951864 
L 126.260868 339.829626 
L 127.386577 352.977707 
L 128.446809 368.177724 
L 129.665073 389.445121 
L 131.064279 418.564989 
L 132.142414 440.848632 
L 469.766567 440.848632 
L 469.766567 440.848632 
" clip-path="url(#p4c9a2e647f)" style="fill: none; stroke: #1f77b4; stroke-width: 1.5; stroke-linecap: square"/>
   </g>
   <g id="line2d_56">
    <path d="M 78.965455 273.777052 
L 80.012157 273.815386 
L 80.362465 274.101607 
L 80.713336 274.701277 
L 81.45084 276.021836 
L 81.703194 276.026506 
L 82.327772 275.716119 
L 82.621923 276.017311 
L 82.974904 276.274348 
L 83.635557 276.284929 
L 83.985213 276.432098 
L 84.47521 276.480572 
L 84.886223 276.56415 
L 85.365657 276.664253 
L 95.106874 278.608545 
L 98.190885 279.553018 
L 101.28384 280.757578 
L 103.915047 282.030716 
L 106.34541 283.468365 
L 108.303034 284.86757 
L 110.096178 286.399497 
L 111.712137 288.038537 
L 113.15366 289.772467 
L 114.453866 291.605883 
L 115.754072 293.766895 
L 117.333553 296.953439 
L 118.465241 299.719045 
L 119.737275 303.45974 
L 120.993356 307.995118 
L 122.077185 312.769883 
L 123.050438 317.917494 
L 124.02369 324.074422 
L 124.996943 331.464754 
L 125.970195 340.342154 
L 127.105977 352.949437 
L 128.241758 368.376303 
L 129.490298 388.898701 
L 131.15662 421.164135 
L 131.85994 433.868549 
L 468.21724 433.868549 
L 468.21724 433.868549 
" clip-path="url(#p4c9a2e647f)" style="fill: none; stroke: #ff7f0e; stroke-width: 1.5; stroke-linecap: square"/>
   </g>
   <g id="line2d_57">
    <path d="M 78.965455 274.386824 
L 80.013133 274.430254 
L 80.37526 274.749917 
L 80.789005 275.526275 
L 81.394692 276.651933 
L 81.64073 276.702394 
L 81.959491 276.461226 
L 82.205433 276.354156 
L 82.38989 276.454849 
L 82.978955 276.945955 
L 83.502095 276.906955 
L 83.967846 277.117464 
L 84.381866 277.158726 
L 84.841027 277.265795 
L 85.384499 277.388523 
L 87.370272 277.731212 
L 95.900156 279.741731 
L 98.782922 280.743124 
L 101.314108 281.829094 
L 103.760456 283.092869 
L 106.109586 284.556809 
L 108.313735 286.225041 
L 110.121577 287.875188 
L 111.797466 289.700665 
L 113.439322 291.839276 
L 114.752806 293.87809 
L 116.218792 296.57961 
L 117.685428 299.874297 
L 118.785406 302.835314 
L 120.151786 307.272978 
L 121.062706 310.817597 
L 122.222359 316.183175 
L 123.382012 322.737959 
L 124.439366 330.011127 
L 125.39442 337.878039 
L 126.647803 350.449706 
L 127.811586 364.784556 
L 129.07044 383.447027 
L 130.63713 410.668077 
L 132.255175 438.774981 
L 465.621143 438.774981 
L 465.621143 438.774981 
" clip-path="url(#p4c9a2e647f)" style="fill: none; stroke: #2ca02c; stroke-width: 1.5; stroke-linecap: square"/>
   </g>
   <g id="line2d_58">
    <path d="M 78.965455 274.926987 
L 80.129155 275.015129 
L 80.501587 275.410422 
L 80.973098 276.358992 
L 81.462628 277.260505 
L 81.741069 277.361988 
L 82.128668 277.093591 
L 82.410098 277.039517 
L 82.714559 277.336114 
L 83.029167 277.627769 
L 83.325219 277.581856 
L 83.619386 277.570799 
L 84.278263 277.822009 
L 84.630603 277.890556 
L 85.079811 278.002971 
L 85.594025 278.12063 
L 94.32781 280.138263 
L 97.408347 281.190971 
L 100.092822 282.32608 
L 102.495368 283.560225 
L 104.628995 284.869336 
L 106.93204 286.562549 
L 108.900152 288.312265 
L 110.463926 289.956866 
L 112.112156 292.010215 
L 113.760385 294.472542 
L 115.183839 297.034652 
L 116.524815 299.906701 
L 117.86579 303.357331 
L 119.206765 307.552544 
L 120.547741 312.687235 
L 121.888716 319.060171 
L 122.782699 324.175242 
L 123.87886 331.606553 
L 125.29667 343.526293 
L 126.601266 357.277922 
L 127.747216 371.88109 
L 129.072071 391.754555 
L 131.914104 436.990836 
L 462.077829 436.990836 
L 462.077829 436.990836 
" clip-path="url(#p4c9a2e647f)" style="fill: none; stroke: #d62728; stroke-width: 1.5; stroke-linecap: square"/>
   </g>
   <g id="line2d_59">
    <path d="M 78.965455 274.877912 
L 80.044609 274.920759 
L 80.409421 275.229645 
L 80.813036 275.966089 
L 81.502738 277.298291 
L 81.734844 277.362228 
L 82.007735 277.178289 
L 82.326293 277.002264 
L 82.551941 277.132536 
L 83.11509 277.648058 
L 83.722831 277.63425 
L 84.151525 277.842128 
L 84.591137 277.881566 
L 85.039559 278.002927 
L 85.484153 278.101839 
L 86.502049 278.289739 
L 87.898698 278.570916 
L 93.298244 279.798699 
L 96.236221 280.706072 
L 99.51653 281.96651 
L 102.174255 283.235228 
L 104.84822 284.805792 
L 106.855816 286.219197 
L 108.61275 287.674277 
L 110.376481 289.390212 
L 112.052109 291.33413 
L 113.435136 293.221593 
L 114.818164 295.435974 
L 116.201191 298.048394 
L 117.375014 300.670013 
L 118.617115 303.937951 
L 119.919176 308.047295 
L 121.341159 313.579583 
L 122.406128 318.631543 
L 123.588078 325.381795 
L 124.642319 332.648546 
L 125.568853 340.202186 
L 126.877964 353.075407 
L 128.025693 366.771665 
L 129.34605 385.44491 
L 131.304799 417.291025 
L 132.335452 432.725144 
L 472.615662 432.725144 
L 472.615662 432.725144 
" clip-path="url(#p4c9a2e647f)" style="fill: none; stroke: #9467bd; stroke-width: 1.5; stroke-linecap: square"/>
   </g>
   <g id="line2d_60">
    <path d="M 78.965455 274.793224 
L 80.10219 274.877126 
L 80.459578 275.261276 
L 80.91873 276.203138 
L 81.40919 277.109997 
L 81.67661 277.183569 
L 82.065694 276.886582 
L 82.320893 276.849161 
L 82.619185 277.160532 
L 82.917477 277.440968 
L 83.215769 277.375261 
L 83.51406 277.37743 
L 84.045879 277.62423 
L 84.441716 277.666245 
L 84.890041 277.782165 
L 85.317726 277.876382 
L 86.42722 278.073172 
L 88.23055 278.436455 
L 94.414183 279.925954 
L 98.251405 281.244193 
L 101.13171 282.514637 
L 103.660187 283.887922 
L 105.955059 285.387908 
L 107.964921 286.962007 
L 109.870643 288.745819 
L 111.728344 290.843143 
L 113.338929 293.04471 
L 114.741063 295.31434 
L 116.158417 298.056797 
L 117.575772 301.361032 
L 118.795485 304.776698 
L 120.093548 309.170281 
L 121.250012 313.914969 
L 122.406476 319.644841 
L 123.56294 326.612452 
L 124.516597 333.503288 
L 125.470255 341.630599 
L 126.716195 354.432001 
L 127.869862 368.779417 
L 129.224818 388.793434 
L 132.481748 440.077347 
L 461.275142 440.077347 
L 461.275142 440.077347 
" clip-path="url(#p4c9a2e647f)" style="fill: none; stroke: #8c564b; stroke-width: 1.5; stroke-linecap: square"/>
   </g>
   <g id="line2d_61">
    <path d="M 78.965455 275.832155 
L 80.124766 275.931051 
L 80.490259 276.360402 
L 80.988551 277.459088 
L 81.390296 278.238331 
L 81.670033 278.361821 
L 82.06307 278.079103 
L 82.274117 278.021632 
L 82.505988 278.203185 
L 82.968119 278.667365 
L 83.727775 278.772201 
L 84.030278 278.878365 
L 84.453036 278.928605 
L 84.883987 279.05301 
L 85.361179 279.168734 
L 87.057134 279.514222 
L 89.678877 280.105212 
L 93.209275 281.041517 
L 96.71061 282.255906 
L 99.566139 283.489258 
L 102.121119 284.845967 
L 104.484616 286.353309 
L 106.567197 287.935432 
L 108.369676 289.550822 
L 110.167369 291.45182 
L 111.875913 293.606869 
L 113.194392 295.553336 
L 114.755864 298.274098 
L 116.317336 301.550915 
L 117.751361 305.200738 
L 119.197552 309.681725 
L 120.405155 314.203661 
L 121.549939 319.321095 
L 122.694722 325.440396 
L 123.839506 332.779684 
L 124.878813 340.702855 
L 126.198853 352.80158 
L 127.357483 365.52416 
L 128.937154 386.063214 
L 132.479874 434.428912 
L 468.829798 434.428912 
L 468.829798 434.428912 
" clip-path="url(#p4c9a2e647f)" style="fill: none; stroke: #e377c2; stroke-width: 1.5; stroke-linecap: square"/>
   </g>
   <g id="line2d_62">
    <path d="M 78.965455 274.077217 
L 80.132409 274.167732 
L 80.525732 274.597609 
L 81.022565 275.596447 
L 81.486322 276.348337 
L 81.730639 276.395577 
L 82.414391 276.08346 
L 82.835269 276.521025 
L 83.069866 276.643699 
L 83.743398 276.659323 
L 84.113692 276.81454 
L 84.633411 276.877934 
L 85.077346 276.959326 
L 85.82948 277.096783 
L 87.020837 277.306468 
L 95.01616 279.048217 
L 98.376105 280.137988 
L 101.042835 281.223546 
L 103.819139 282.625891 
L 105.860019 283.874334 
L 107.749275 285.243519 
L 109.585828 286.822445 
L 111.251515 288.531107 
L 112.90268 290.570472 
L 114.30568 292.632253 
L 115.641087 294.965882 
L 117.037222 297.904003 
L 118.220965 300.888239 
L 119.565074 304.996064 
L 120.461147 308.273746 
L 121.725702 313.825978 
L 122.990256 320.748466 
L 124.04292 327.845133 
L 124.998425 335.586479 
L 126.285942 348.40008 
L 127.416899 362.333172 
L 128.666041 381.025318 
L 129.921767 403.259919 
L 131.82177 437.367144 
L 463.85058 437.367144 
L 463.85058 437.367144 
" clip-path="url(#p4c9a2e647f)" style="fill: none; stroke: #7f7f7f; stroke-width: 1.5; stroke-linecap: square"/>
   </g>
   <g id="line2d_63">
    <path d="M 78.965455 273.899397 
L 80.037428 273.941326 
L 80.409186 274.253419 
L 80.84553 275.039497 
L 81.475418 276.152228 
L 81.715636 276.197116 
L 82.07047 275.939768 
L 82.362494 275.858703 
L 82.60884 276.066271 
L 83.037073 276.43797 
L 83.410588 276.329085 
L 83.681189 276.413745 
L 84.11689 276.600267 
L 84.565152 276.641099 
L 85.01311 276.738278 
L 85.54172 276.848703 
L 90.17265 277.630631 
L 93.894357 278.440404 
L 97.204097 279.381455 
L 100.081747 280.409349 
L 102.5496 281.491865 
L 104.824022 282.687425 
L 107.212423 284.204142 
L 109.348397 285.863679 
L 111.354246 287.775145 
L 113.091271 289.796458 
L 114.771931 292.183664 
L 116.279728 294.796162 
L 117.385701 297.077566 
L 118.592449 300.014971 
L 119.799197 303.539323 
L 121.005944 307.810362 
L 122.212692 313.042299 
L 123.41944 319.514408 
L 124.626188 327.57632 
L 125.580597 335.355756 
L 126.816373 347.690453 
L 127.954231 361.728168 
L 129.215893 380.723018 
L 130.457629 402.93829 
L 132.334862 437.181945 
L 473.474545 437.181945 
L 473.474545 437.181945 
" clip-path="url(#p4c9a2e647f)" style="fill: none; stroke: #bcbd22; stroke-width: 1.5; stroke-linecap: square"/>
   </g>
   <g id="line2d_64">
    <path d="M 78.965455 274.546047 
L 80.032831 274.591537 
L 80.399668 274.924732 
L 80.816002 275.728264 
L 81.413321 276.886388 
L 81.652776 276.959579 
L 81.988739 276.706965 
L 82.257509 276.590741 
L 82.459087 276.725689 
L 82.994929 277.218977 
L 83.595724 277.201766 
L 83.984177 277.399204 
L 84.457681 277.445085 
L 84.870079 277.546214 
L 85.288044 277.637613 
L 86.240632 277.808631 
L 87.836439 278.108899 
L 92.98878 279.219138 
L 96.256124 280.185645 
L 99.152208 281.237095 
L 102.005261 282.526503 
L 104.256063 283.758366 
L 106.439116 285.17923 
L 108.423992 286.720264 
L 110.231465 288.392672 
L 112.042609 290.399298 
L 113.328703 292.084142 
L 115.050453 294.765866 
L 116.592351 297.701864 
L 117.748775 300.340572 
L 119.088265 303.971198 
L 120.195447 307.569566 
L 121.434774 312.422791 
L 122.785223 318.967487 
L 123.755396 324.68932 
L 124.795441 332.000788 
L 126.160234 343.860117 
L 127.42739 357.644756 
L 128.54209 372.281872 
L 129.864517 392.682332 
L 132.695608 438.854501 
L 470.798149 438.854501 
L 470.798149 438.854501 
" clip-path="url(#p4c9a2e647f)" style="fill: none; stroke: #17becf; stroke-width: 1.5; stroke-linecap: square"/>
   </g>
   <g id="patch_8">
    <path d="M 59.24 449.231495 
L 59.24 264.808505 
" style="fill: none; stroke: #000000; stroke-width: 0.8; stroke-linejoin: miter; stroke-linecap: square"/>
   </g>
   <g id="patch_9">
    <path d="M 493.2 449.231495 
L 493.2 264.808505 
" style="fill: none; stroke: #000000; stroke-width: 0.8; stroke-linejoin: miter; stroke-linecap: square"/>
   </g>
   <g id="patch_10">
    <path d="M 59.24 449.231495 
L 493.2 449.231495 
" style="fill: none; stroke: #000000; stroke-width: 0.8; stroke-linejoin: miter; stroke-linecap: square"/>
   </g>
   <g id="patch_11">
    <path d="M 59.24 264.808505 
L 493.2 264.808505 
" style="fill: none; stroke: #000000; stroke-width: 0.8; stroke-linejoin: miter; stroke-linecap: square"/>
   </g>
  </g>
  <g id="axes_3">
   <g id="patch_12">
    <path d="M 59.24 678.04 
L 493.2 678.04 
L 493.2 493.61701 
L 59.24 493.61701 
z
" style="fill: #ffffff"/>
   </g>
   <g id="matplotlib.axis_5">
    <g id="xtick_11">
     <g id="line2d_65">
      <path d="M 78.965455 678.04 
L 78.965455 493.61701 
" clip-path="url(#pc95485fc65)" style="fill: none; stroke: #b0b0b0; stroke-width: 0.8; stroke-linecap: square"/>
     </g>
     <g id="line2d_66">
      <g>
       <use xlink:href="#m22191671df" x="78.965455" y="678.04" style="stroke: #000000; stroke-width: 0.8"/>
      </g>
     </g>
     <g id="text_27">
      <!-- 0 -->
      <g transform="translate(75.784205 692.638438) scale(0.1 -0.1)">
       <use xlink:href="#DejaVuSans-30"/>
      </g>
     </g>
    </g>
    <g id="xtick_12">
     <g id="line2d_67">
      <path d="M 166.623305 678.04 
L 166.623305 493.61701 
" clip-path="url(#pc95485fc65)" style="fill: none; stroke: #b0b0b0; stroke-width: 0.8; stroke-linecap: square"/>
     </g>
     <g id="line2d_68">
      <g>
       <use xlink:href="#m22191671df" x="166.623305" y="678.04" style="stroke: #000000; stroke-width: 0.8"/>
      </g>
     </g>
     <g id="text_28">
      <!-- 50 -->
      <g transform="translate(160.260805 692.638438) scale(0.1 -0.1)">
       <use xlink:href="#DejaVuSans-35"/>
       <use xlink:href="#DejaVuSans-30" transform="translate(63.623047 0)"/>
      </g>
     </g>
    </g>
    <g id="xtick_13">
     <g id="line2d_69">
      <path d="M 254.281156 678.04 
L 254.281156 493.61701 
" clip-path="url(#pc95485fc65)" style="fill: none; stroke: #b0b0b0; stroke-width: 0.8; stroke-linecap: square"/>
     </g>
     <g id="line2d_70">
      <g>
       <use xlink:href="#m22191671df" x="254.281156" y="678.04" style="stroke: #000000; stroke-width: 0.8"/>
      </g>
     </g>
     <g id="text_29">
      <!-- 100 -->
      <g transform="translate(244.737406 692.638438) scale(0.1 -0.1)">
       <use xlink:href="#DejaVuSans-31"/>
       <use xlink:href="#DejaVuSans-30" transform="translate(63.623047 0)"/>
       <use xlink:href="#DejaVuSans-30" transform="translate(127.246094 0)"/>
      </g>
     </g>
    </g>
    <g id="xtick_14">
     <g id="line2d_71">
      <path d="M 341.939007 678.04 
L 341.939007 493.61701 
" clip-path="url(#pc95485fc65)" style="fill: none; stroke: #b0b0b0; stroke-width: 0.8; stroke-linecap: square"/>
     </g>
     <g id="line2d_72">
      <g>
       <use xlink:href="#m22191671df" x="341.939007" y="678.04" style="stroke: #000000; stroke-width: 0.8"/>
      </g>
     </g>
     <g id="text_30">
      <!-- 150 -->
      <g transform="translate(332.395257 692.638438) scale(0.1 -0.1)">
       <use xlink:href="#DejaVuSans-31"/>
       <use xlink:href="#DejaVuSans-35" transform="translate(63.623047 0)"/>
       <use xlink:href="#DejaVuSans-30" transform="translate(127.246094 0)"/>
      </g>
     </g>
    </g>
    <g id="xtick_15">
     <g id="line2d_73">
      <path d="M 429.596857 678.04 
L 429.596857 493.61701 
" clip-path="url(#pc95485fc65)" style="fill: none; stroke: #b0b0b0; stroke-width: 0.8; stroke-linecap: square"/>
     </g>
     <g id="line2d_74">
      <g>
       <use xlink:href="#m22191671df" x="429.596857" y="678.04" style="stroke: #000000; stroke-width: 0.8"/>
      </g>
     </g>
     <g id="text_31">
      <!-- 200 -->
      <g transform="translate(420.053107 692.638438) scale(0.1 -0.1)">
       <use xlink:href="#DejaVuSans-32"/>
       <use xlink:href="#DejaVuSans-30" transform="translate(63.623047 0)"/>
       <use xlink:href="#DejaVuSans-30" transform="translate(127.246094 0)"/>
      </g>
     </g>
    </g>
    <g id="text_32">
     <!-- Time (s) -->
     <g transform="translate(255.891094 706.316563) scale(0.1 -0.1)">
      <use xlink:href="#DejaVuSans-54"/>
      <use xlink:href="#DejaVuSans-69" transform="translate(57.958984 0)"/>
      <use xlink:href="#DejaVuSans-6d" transform="translate(85.742188 0)"/>
      <use xlink:href="#DejaVuSans-65" transform="translate(183.154297 0)"/>
      <use xlink:href="#DejaVuSans-20" transform="translate(244.677734 0)"/>
      <use xlink:href="#DejaVuSans-28" transform="translate(276.464844 0)"/>
      <use xlink:href="#DejaVuSans-73" transform="translate(315.478516 0)"/>
      <use xlink:href="#DejaVuSans-29" transform="translate(367.578125 0)"/>
     </g>
    </g>
   </g>
   <g id="matplotlib.axis_6">
    <g id="ytick_13">
     <g id="line2d_75">
      <path d="M 59.24 672.109933 
L 493.2 672.109933 
" clip-path="url(#pc95485fc65)" style="fill: none; stroke: #b0b0b0; stroke-width: 0.8; stroke-linecap: square"/>
     </g>
     <g id="line2d_76">
      <g>
       <use xlink:href="#m9eb5004168" x="59.24" y="672.109933" style="stroke: #000000; stroke-width: 0.8"/>
      </g>
     </g>
     <g id="text_33">
      <!-- 206 -->
      <g transform="translate(33.1525 675.909152) scale(0.1 -0.1)">
       <use xlink:href="#DejaVuSans-32"/>
       <use xlink:href="#DejaVuSans-30" transform="translate(63.623047 0)"/>
       <use xlink:href="#DejaVuSans-36" transform="translate(127.246094 0)"/>
      </g>
     </g>
    </g>
    <g id="ytick_14">
     <g id="line2d_77">
      <path d="M 59.24 640.071495 
L 493.2 640.071495 
" clip-path="url(#pc95485fc65)" style="fill: none; stroke: #b0b0b0; stroke-width: 0.8; stroke-linecap: square"/>
     </g>
     <g id="line2d_78">
      <g>
       <use xlink:href="#m9eb5004168" x="59.24" y="640.071495" style="stroke: #000000; stroke-width: 0.8"/>
      </g>
     </g>
     <g id="text_34">
      <!-- 208 -->
      <g transform="translate(33.1525 643.870714) scale(0.1 -0.1)">
       <use xlink:href="#DejaVuSans-32"/>
       <use xlink:href="#DejaVuSans-30" transform="translate(63.623047 0)"/>
       <use xlink:href="#DejaVuSans-38" transform="translate(127.246094 0)"/>
      </g>
     </g>
    </g>
    <g id="ytick_15">
     <g id="line2d_79">
      <path d="M 59.24 608.033057 
L 493.2 608.033057 
" clip-path="url(#pc95485fc65)" style="fill: none; stroke: #b0b0b0; stroke-width: 0.8; stroke-linecap: square"/>
     </g>
     <g id="line2d_80">
      <g>
       <use xlink:href="#m9eb5004168" x="59.24" y="608.033057" style="stroke: #000000; stroke-width: 0.8"/>
      </g>
     </g>
     <g id="text_35">
      <!-- 210 -->
      <g transform="translate(33.1525 611.832276) scale(0.1 -0.1)">
       <use xlink:href="#DejaVuSans-32"/>
       <use xlink:href="#DejaVuSans-31" transform="translate(63.623047 0)"/>
       <use xlink:href="#DejaVuSans-30" transform="translate(127.246094 0)"/>
      </g>
     </g>
    </g>
    <g id="ytick_16">
     <g id="line2d_81">
      <path d="M 59.24 575.994619 
L 493.2 575.994619 
" clip-path="url(#pc95485fc65)" style="fill: none; stroke: #b0b0b0; stroke-width: 0.8; stroke-linecap: square"/>
     </g>
     <g id="line2d_82">
      <g>
       <use xlink:href="#m9eb5004168" x="59.24" y="575.994619" style="stroke: #000000; stroke-width: 0.8"/>
      </g>
     </g>
     <g id="text_36">
      <!-- 212 -->
      <g transform="translate(33.1525 579.793838) scale(0.1 -0.1)">
       <use xlink:href="#DejaVuSans-32"/>
       <use xlink:href="#DejaVuSans-31" transform="translate(63.623047 0)"/>
       <use xlink:href="#DejaVuSans-32" transform="translate(127.246094 0)"/>
      </g>
     </g>
    </g>
    <g id="ytick_17">
     <g id="line2d_83">
      <path d="M 59.24 543.956181 
L 493.2 543.956181 
" clip-path="url(#pc95485fc65)" style="fill: none; stroke: #b0b0b0; stroke-width: 0.8; stroke-linecap: square"/>
     </g>
     <g id="line2d_84">
      <g>
       <use xlink:href="#m9eb5004168" x="59.24" y="543.956181" style="stroke: #000000; stroke-width: 0.8"/>
      </g>
     </g>
     <g id="text_37">
      <!-- 214 -->
      <g transform="translate(33.1525 547.7554) scale(0.1 -0.1)">
       <use xlink:href="#DejaVuSans-32"/>
       <use xlink:href="#DejaVuSans-31" transform="translate(63.623047 0)"/>
       <use xlink:href="#DejaVuSans-34" transform="translate(127.246094 0)"/>
      </g>
     </g>
    </g>
    <g id="ytick_18">
     <g id="line2d_85">
      <path d="M 59.24 511.917743 
L 493.2 511.917743 
" clip-path="url(#pc95485fc65)" style="fill: none; stroke: #b0b0b0; stroke-width: 0.8; stroke-linecap: square"/>
     </g>
     <g id="line2d_86">
      <g>
       <use xlink:href="#m9eb5004168" x="59.24" y="511.917743" style="stroke: #000000; stroke-width: 0.8"/>
      </g>
     </g>
     <g id="text_38">
      <!-- 216 -->
      <g transform="translate(33.1525 515.716962) scale(0.1 -0.1)">
       <use xlink:href="#DejaVuSans-32"/>
       <use xlink:href="#DejaVuSans-31" transform="translate(63.623047 0)"/>
       <use xlink:href="#DejaVuSans-36" transform="translate(127.246094 0)"/>
      </g>
     </g>
    </g>
    <g id="text_39">
     <!-- Precession Angle - ψ (°) -->
     <g transform="translate(27.072813 644.516786) rotate(-90) scale(0.1 -0.1)">
      <defs>
       <path id="DejaVuSans-50" d="M 1259 4147 
L 1259 2394 
L 2053 2394 
Q 2494 2394 2734 2622 
Q 2975 2850 2975 3272 
Q 2975 3691 2734 3919 
Q 2494 4147 2053 4147 
L 1259 4147 
z
M 628 4666 
L 2053 4666 
Q 2838 4666 3239 4311 
Q 3641 3956 3641 3272 
Q 3641 2581 3239 2228 
Q 2838 1875 2053 1875 
L 1259 1875 
L 1259 0 
L 628 0 
L 628 4666 
z
" transform="scale(0.015625)"/>
       <path id="DejaVuSans-72" d="M 2631 2963 
Q 2534 3019 2420 3045 
Q 2306 3072 2169 3072 
Q 1681 3072 1420 2755 
Q 1159 2438 1159 1844 
L 1159 0 
L 581 0 
L 581 3500 
L 1159 3500 
L 1159 2956 
Q 1341 3275 1631 3429 
Q 1922 3584 2338 3584 
Q 2397 3584 2469 3576 
Q 2541 3569 2628 3553 
L 2631 2963 
z
" transform="scale(0.015625)"/>
       <path id="DejaVuSans-63" d="M 3122 3366 
L 3122 2828 
Q 2878 2963 2633 3030 
Q 2388 3097 2138 3097 
Q 1578 3097 1268 2742 
Q 959 2388 959 1747 
Q 959 1106 1268 751 
Q 1578 397 2138 397 
Q 2388 397 2633 464 
Q 2878 531 3122 666 
L 3122 134 
Q 2881 22 2623 -34 
Q 2366 -91 2075 -91 
Q 1284 -91 818 406 
Q 353 903 353 1747 
Q 353 2603 823 3093 
Q 1294 3584 2113 3584 
Q 2378 3584 2631 3529 
Q 2884 3475 3122 3366 
z
" transform="scale(0.015625)"/>
       <path id="DejaVuSans-3c8" d="M 1816 -78 
Q 1094 38 759 341 
Q 350 713 350 1472 
L 350 3500 
L 931 3500 
L 931 1494 
Q 931 922 1197 684 
Q 1428 478 1816 434 
L 1816 3500 
L 2388 3500 
L 2388 438 
Q 2797 481 3006 688 
Q 3272 950 3272 1497 
L 3272 3500 
L 3853 3500 
L 3853 1475 
Q 3853 688 3444 344 
Q 3075 34 2388 -75 
L 2388 -1331 
L 1816 -1331 
L 1816 -78 
z
" transform="scale(0.015625)"/>
      </defs>
      <use xlink:href="#DejaVuSans-50"/>
      <use xlink:href="#DejaVuSans-72" transform="translate(58.552734 0)"/>
      <use xlink:href="#DejaVuSans-65" transform="translate(97.416016 0)"/>
      <use xlink:href="#DejaVuSans-63" transform="translate(158.939453 0)"/>
      <use xlink:href="#DejaVuSans-65" transform="translate(213.919922 0)"/>
      <use xlink:href="#DejaVuSans-73" transform="translate(275.443359 0)"/>
      <use xlink:href="#DejaVuSans-73" transform="translate(327.542969 0)"/>
      <use xlink:href="#DejaVuSans-69" transform="translate(379.642578 0)"/>
      <use xlink:href="#DejaVuSans-6f" transform="translate(407.425781 0)"/>
      <use xlink:href="#DejaVuSans-6e" transform="translate(468.607422 0)"/>
      <use xlink:href="#DejaVuSans-20" transform="translate(531.986328 0)"/>
      <use xlink:href="#DejaVuSans-41" transform="translate(563.773438 0)"/>
      <use xlink:href="#DejaVuSans-6e" transform="translate(632.181641 0)"/>
      <use xlink:href="#DejaVuSans-67" transform="translate(695.560547 0)"/>
      <use xlink:href="#DejaVuSans-6c" transform="translate(759.037109 0)"/>
      <use xlink:href="#DejaVuSans-65" transform="translate(786.820312 0)"/>
      <use xlink:href="#DejaVuSans-20" transform="translate(848.34375 0)"/>
      <use xlink:href="#DejaVuSans-2d" transform="translate(880.130859 0)"/>
      <use xlink:href="#DejaVuSans-20" transform="translate(916.214844 0)"/>
      <use xlink:href="#DejaVuSans-3c8" transform="translate(948.001953 0)"/>
      <use xlink:href="#DejaVuSans-20" transform="translate(1013.96875 0)"/>
      <use xlink:href="#DejaVuSans-28" transform="translate(1045.755859 0)"/>
      <use xlink:href="#DejaVuSans-b0" transform="translate(1084.769531 0)"/>
      <use xlink:href="#DejaVuSans-29" transform="translate(1134.769531 0)"/>
     </g>
    </g>
   </g>
   <g id="line2d_87">
    <path d="M 78.965455 518.074576 
L 79.872535 518.15404 
L 79.984895 518.698711 
L 80.209615 521.474706 
L 80.59619 530.835147 
L 81.193009 545.571269 
L 81.413046 547.402772 
L 81.49405 547.428751 
L 81.656058 546.565577 
L 82.134999 542.132487 
L 82.234483 542.210131 
L 82.458323 544.409628 
L 82.864386 549.287388 
L 82.993084 549.533411 
L 83.026779 549.502221 
L 83.259053 549.10245 
L 83.324827 549.206727 
L 83.456376 550.017506 
L 86.17499 577.433141 
L 87.937607 588.978971 
L 88.893855 593.698066 
L 89.863001 597.49879 
L 96.872556 622.648885 
L 99.476376 630.805113 
L 101.549383 636.623483 
L 103.378647 641.099344 
L 105.49817 645.653186 
L 107.097468 648.677555 
L 108.553519 651.038072 
L 110.009571 652.979634 
L 111.465622 654.511985 
L 112.643241 655.431524 
L 113.751392 656.057611 
L 114.859543 656.478259 
L 116.455737 656.790955 
L 118.436835 656.933319 
L 121.525947 656.883941 
L 127.761813 656.80663 
L 131.359449 656.960968 
L 133.199486 657.042276 
L 469.766567 657.042276 
L 469.766567 657.042276 
" clip-path="url(#pc95485fc65)" style="fill: none; stroke: #1f77b4; stroke-width: 1.5; stroke-linecap: square"/>
   </g>
   <g id="line2d_88">
    <path d="M 78.965455 506.747309 
L 79.868587 506.825148 
L 80.012157 507.606427 
L 80.299297 511.889598 
L 80.797855 525.323232 
L 81.198975 534.131142 
L 81.45084 535.74956 
L 81.555143 535.437182 
L 81.746766 533.73506 
L 82.126095 530.158446 
L 82.176514 530.117546 
L 82.277353 530.51128 
L 82.504263 533.267104 
L 82.857244 537.245841 
L 82.974904 537.398235 
L 83.269055 536.818816 
L 83.327885 536.951601 
L 83.523805 538.562125 
L 84.013545 543.327875 
L 84.241058 544.935524 
L 85.734324 560.05148 
L 86.651834 566.420462 
L 87.673198 572.64982 
L 88.658848 577.397231 
L 89.619517 581.018331 
L 91.860813 588.24464 
L 93.330882 593.313118 
L 95.106874 599.291792 
L 98.734592 610.188426 
L 100.747649 615.535601 
L 102.616541 619.973578 
L 104.496075 623.846433 
L 106.34541 627.246953 
L 107.996751 629.857819 
L 109.659029 631.967933 
L 111.14168 633.447407 
L 112.384218 634.366165 
L 113.587062 635.004884 
L 114.887268 635.412898 
L 116.408344 635.664504 
L 118.465241 635.733464 
L 130.553259 635.612691 
L 133.268023 635.727262 
L 468.21724 635.727262 
L 468.21724 635.727262 
" clip-path="url(#pc95485fc65)" style="fill: none; stroke: #ff7f0e; stroke-width: 1.5; stroke-linecap: square"/>
   </g>
   <g id="line2d_89">
    <path d="M 78.965455 552.725515 
L 79.858483 552.777116 
L 80.013133 553.370883 
L 80.322434 556.723218 
L 80.872866 567.214808 
L 81.260965 572.463933 
L 81.43487 573.114595 
L 81.555964 572.924609 
L 81.741377 571.87287 
L 82.082462 569.90634 
L 82.143948 569.894169 
L 82.266919 570.351 
L 82.554279 573.15982 
L 82.857619 575.342935 
L 83.039623 575.43517 
L 83.170565 575.391873 
L 83.281075 575.626541 
L 83.44684 576.719964 
L 85.571295 596.086921 
L 86.807599 604.155064 
L 87.976815 610.464779 
L 88.969919 614.612682 
L 90.08053 618.331515 
L 92.77052 627.074112 
L 94.292708 632.016678 
L 97.354188 641.276774 
L 98.11492 643.421466 
L 98.950632 645.587134 
L 102.006947 653.081287 
L 105.885823 660.547027 
L 108.047414 663.869572 
L 109.802777 666.048567 
L 112.125837 668.011991 
L 113.439322 668.584035 
L 114.752806 669.094866 
L 115.852133 669.223667 
L 118.785406 669.420109 
L 123.382012 669.365093 
L 127.811586 669.371687 
L 131.58691 669.586919 
L 133.192747 669.657137 
L 465.621143 669.657137 
L 465.621143 669.657137 
" clip-path="url(#pc95485fc65)" style="fill: none; stroke: #2ca02c; stroke-width: 1.5; stroke-linecap: square"/>
   </g>
   <g id="line2d_90">
    <path d="M 78.965455 548.919909 
L 79.873964 548.965698 
L 80.001559 549.345789 
L 80.25675 551.384474 
L 80.668592 557.861447 
L 81.26522 567.379344 
L 81.527125 568.697287 
L 81.634097 568.59481 
L 81.805669 567.823016 
L 82.193268 565.696096 
L 82.257868 565.656803 
L 82.410098 566.176042 
L 83.18536 571.167688 
L 83.325219 571.175676 
L 83.465079 571.502618 
L 83.682186 573.075373 
L 84.278263 577.932623 
L 84.630603 581.333693 
L 85.239395 586.880422 
L 85.908475 591.917859 
L 87.308605 600.082042 
L 88.520126 605.713944 
L 89.533595 609.305166 
L 91.215524 614.21541 
L 92.993326 619.730717 
L 95.70462 627.715412 
L 100.533606 640.047894 
L 102.495368 644.270855 
L 104.104792 647.331491 
L 106.93204 651.948799 
L 108.900152 654.628738 
L 110.463926 656.261922 
L 111.700098 657.40331 
L 112.93627 658.203812 
L 115.183839 659.28349 
L 116.077823 659.481343 
L 118.312782 659.817502 
L 119.206765 659.934809 
L 127.747216 660.025406 
L 130.888673 660.15949 
L 133.015096 660.257007 
L 462.077829 660.257007 
L 462.077829 660.257007 
" clip-path="url(#pc95485fc65)" style="fill: none; stroke: #d62728; stroke-width: 1.5; stroke-linecap: square"/>
   </g>
   <g id="line2d_91">
    <path d="M 78.965455 532.05022 
L 79.885457 532.106165 
L 80.044609 532.749908 
L 80.362912 536.392134 
L 80.867148 546.633811 
L 81.245201 553.015555 
L 81.502738 554.571268 
L 81.558973 554.564722 
L 81.675026 554.20213 
L 82.007735 551.66636 
L 82.219297 550.600956 
L 82.272795 550.593927 
L 82.379791 550.965666 
L 82.617841 553.261146 
L 82.953334 556.325537 
L 83.11509 556.581868 
L 83.374647 556.350178 
L 83.490708 556.683467 
L 83.722831 558.664557 
L 84.151525 562.211974 
L 84.434774 564.219071 
L 85.484153 574.197464 
L 86.169729 578.823592 
L 87.182771 584.612419 
L 88.448874 590.628621 
L 89.345421 593.872731 
L 90.525953 597.35757 
L 91.929029 601.390194 
L 93.532595 606.332935 
L 98.716417 620.535464 
L 102.174255 628.331318 
L 103.747945 631.319701 
L 106.652574 636.132718 
L 107.751619 637.606445 
L 109.590581 639.754573 
L 111.552552 641.389292 
L 112.397866 641.894107 
L 114.12665 642.560812 
L 115.509677 642.857022 
L 118.203081 642.985606 
L 120.39317 642.925874 
L 124.179052 642.816199 
L 129.34605 642.84372 
L 136.338561 643.068254 
L 472.615662 643.068254 
L 472.615662 643.068254 
" clip-path="url(#pc95485fc65)" style="fill: none; stroke: #9467bd; stroke-width: 1.5; stroke-linecap: square"/>
   </g>
   <g id="line2d_92">
    <path d="M 78.965455 518.204193 
L 79.865346 518.26626 
L 79.983768 518.732116 
L 80.220611 521.166673 
L 80.623392 529.344126 
L 81.201521 541.110769 
L 81.40919 542.501307 
L 81.46872 542.532961 
L 81.577704 542.200327 
L 81.799135 540.381194 
L 82.125903 537.877878 
L 82.186112 537.849288 
L 82.320893 538.475938 
L 82.99205 544.172381 
L 83.290342 543.772644 
L 83.439487 544.491325 
L 85.717395 564.360635 
L 86.907913 571.644989 
L 88.051964 577.438246 
L 88.983372 581.102559 
L 90.009808 584.314483 
L 97.541129 606.069177 
L 100.567477 613.467599 
L 102.628621 617.839286 
L 104.368111 621.02289 
L 106.175602 623.99813 
L 107.964921 626.54433 
L 109.870643 628.715053 
L 111.29743 629.921488 
L 112.644755 630.832369 
L 113.999018 631.406348 
L 115.44974 631.795207 
L 116.867094 631.971656 
L 119.66086 632.028963 
L 129.920889 631.99445 
L 135.453822 632.225593 
L 461.275142 632.225593 
L 461.275142 632.225593 
" clip-path="url(#pc95485fc65)" style="fill: none; stroke: #8c564b; stroke-width: 1.5; stroke-linecap: square"/>
   </g>
   <g id="line2d_93">
    <path d="M 78.965455 527.326025 
L 79.866871 527.37869 
L 79.995818 527.826868 
L 80.253713 530.232107 
L 80.685399 538.032569 
L 81.189424 546.759516 
L 81.390296 548.06714 
L 81.502225 548.105211 
L 81.670033 547.362481 
L 82.133419 544.276537 
L 82.203768 544.292703 
L 82.357043 545.072739 
L 82.968119 549.723907 
L 83.298213 549.482364 
L 83.430251 550.026332 
L 85.143587 563.767951 
L 85.672975 567.536333 
L 86.9645 574.612582 
L 88.241809 580.258088 
L 89.118184 583.197567 
L 90.244381 586.233111 
L 91.913301 590.557172 
L 94.797545 598.424119 
L 98.167139 606.581465 
L 100.589769 611.812263 
L 102.365018 615.179582 
L 104.181816 618.175317 
L 105.980106 620.819638 
L 107.447834 622.707298 
L 109.186214 624.550682 
L 110.491107 625.622435 
L 111.875913 626.514618 
L 113.194392 627.083622 
L 114.755864 627.474407 
L 116.317336 627.641711 
L 119.197552 627.657353 
L 128.129903 627.519677 
L 131.563539 627.730543 
L 133.163822 627.822812 
L 468.829798 627.822812 
L 468.829798 627.822812 
" clip-path="url(#pc95485fc65)" style="fill: none; stroke: #e377c2; stroke-width: 1.5; stroke-linecap: square"/>
   </g>
   <g id="line2d_94">
    <path d="M 78.965455 501.999873 
L 79.875166 502.071881 
L 80.003787 502.674451 
L 80.26103 505.887208 
L 80.681477 515.984229 
L 81.254444 529.048151 
L 81.486322 530.578363 
L 81.567761 530.476886 
L 81.730639 529.436594 
L 82.221202 525.133085 
L 82.317797 525.31022 
L 82.535134 527.458464 
L 82.952567 532.127822 
L 83.069866 532.304449 
L 83.381515 531.871486 
L 83.49215 532.320194 
L 83.743398 535.003778 
L 84.113692 538.392964 
L 84.376222 540.267974 
L 85.716387 553.575858 
L 87.518573 564.898658 
L 88.41356 569.399497 
L 89.335246 573.000547 
L 90.812289 577.551927 
L 92.660827 583.445297 
L 95.612286 592.881244 
L 98.201614 600.332087 
L 101.650085 609.030216 
L 103.819139 613.580644 
L 106.096946 617.695857 
L 107.749275 620.315314 
L 109.848193 622.995397 
L 111.251515 624.311996 
L 112.543738 625.348375 
L 113.732095 625.980093 
L 115.307235 626.54722 
L 116.642641 626.820341 
L 118.669002 626.944289 
L 121.725702 626.952538 
L 127.416899 626.890564 
L 131.160998 627.070224 
L 132.714122 627.13116 
L 463.85058 627.13116 
L 463.85058 627.13116 
" clip-path="url(#pc95485fc65)" style="fill: none; stroke: #7f7f7f; stroke-width: 1.5; stroke-linecap: square"/>
   </g>
   <g id="line2d_95">
    <path d="M 78.965455 507.213144 
L 79.880034 507.286723 
L 80.037428 508.131216 
L 80.352216 512.871295 
L 81.475418 535.697419 
L 81.517424 535.69007 
L 81.637355 535.23376 
L 81.897226 532.698251 
L 82.215711 530.28505 
L 82.264638 530.321945 
L 82.411421 531.255984 
L 83.037073 537.548907 
L 83.079685 537.520922 
L 83.358721 537.070552 
L 83.496993 537.668348 
L 83.768226 540.768469 
L 84.11689 543.792413 
L 84.350407 545.49415 
L 85.731149 559.381772 
L 87.453203 570.489875 
L 88.423602 575.407966 
L 89.32603 578.964054 
L 90.527331 582.854263 
L 92.331022 588.744859 
L 95.824587 600.225024 
L 98.067326 606.833676 
L 100.478822 613.299809 
L 102.5496 618.170027 
L 104.308709 621.737286 
L 106.369961 625.464447 
L 108.054886 627.988648 
L 109.348397 629.603232 
L 110.641909 630.886463 
L 112.066583 631.912588 
L 113.603615 632.660403 
L 114.771931 632.944021 
L 116.782327 633.115096 
L 118.592449 633.096857 
L 124.022814 632.801168 
L 127.195659 632.733599 
L 131.072069 632.88222 
L 133.613373 632.999661 
L 473.474545 632.999661 
L 473.474545 632.999661 
" clip-path="url(#pc95485fc65)" style="fill: none; stroke: #bcbd22; stroke-width: 1.5; stroke-linecap: square"/>
   </g>
   <g id="line2d_96">
    <path d="M 78.965455 521.079555 
L 79.875295 521.146486 
L 80.032831 521.915315 
L 80.347904 526.230512 
L 81.413321 545.977303 
L 81.470742 545.998683 
L 81.585584 545.61412 
L 81.854354 543.210608 
L 82.123124 541.238128 
L 82.190317 541.212086 
L 82.324702 541.889291 
L 82.939218 547.638852 
L 82.994929 547.60926 
L 83.2767 547.139671 
L 83.383041 547.492549 
L 83.595724 549.473663 
L 83.984177 552.76884 
L 84.264298 554.567036 
L 85.561565 567.009033 
L 87.019764 576.234202 
L 88.262934 582.549807 
L 89.164402 586.023887 
L 90.314109 589.584625 
L 96.65333 608.663031 
L 100.193634 617.772576 
L 102.005261 621.831067 
L 104.741186 627.127317 
L 106.196554 629.503455 
L 107.810393 631.861727 
L 109.231016 633.553136 
L 110.73169 634.98488 
L 112.042609 635.888745 
L 113.328703 636.54791 
L 114.664978 636.860562 
L 117.3633 637.17643 
L 123.755396 636.875844 
L 127.005005 636.862746 
L 131.630163 637.048569 
L 133.890345 637.159599 
L 470.798149 637.159599 
L 470.798149 637.159599 
" clip-path="url(#pc95485fc65)" style="fill: none; stroke: #17becf; stroke-width: 1.5; stroke-linecap: square"/>
   </g>
   <g id="patch_13">
    <path d="M 59.24 678.04 
L 59.24 493.61701 
" style="fill: none; stroke: #000000; stroke-width: 0.8; stroke-linejoin: miter; stroke-linecap: square"/>
   </g>
   <g id="patch_14">
    <path d="M 493.2 678.04 
L 493.2 493.61701 
" style="fill: none; stroke: #000000; stroke-width: 0.8; stroke-linejoin: miter; stroke-linecap: square"/>
   </g>
   <g id="patch_15">
    <path d="M 59.24 678.04 
L 493.2 678.04 
" style="fill: none; stroke: #000000; stroke-width: 0.8; stroke-linejoin: miter; stroke-linecap: square"/>
   </g>
   <g id="patch_16">
    <path d="M 59.24 493.61701 
L 493.2 493.61701 
" style="fill: none; stroke: #000000; stroke-width: 0.8; stroke-linejoin: miter; stroke-linecap: square"/>
   </g>
  </g>
  <g id="text_40">
   <!-- Comparison of the euler angles of the flights -->
   <g transform="translate(73.12 -2.2425) scale(0.16 -0.16)">
    <defs>
     <path id="DejaVuSans-43" d="M 4122 4306 
L 4122 3641 
Q 3803 3938 3442 4084 
Q 3081 4231 2675 4231 
Q 1875 4231 1450 3742 
Q 1025 3253 1025 2328 
Q 1025 1406 1450 917 
Q 1875 428 2675 428 
Q 3081 428 3442 575 
Q 3803 722 4122 1019 
L 4122 359 
Q 3791 134 3420 21 
Q 3050 -91 2638 -91 
Q 1578 -91 968 557 
Q 359 1206 359 2328 
Q 359 3453 968 4101 
Q 1578 4750 2638 4750 
Q 3056 4750 3426 4639 
Q 3797 4528 4122 4306 
z
" transform="scale(0.015625)"/>
     <path id="DejaVuSans-66" d="M 2375 4863 
L 2375 4384 
L 1825 4384 
Q 1516 4384 1395 4259 
Q 1275 4134 1275 3809 
L 1275 3500 
L 2222 3500 
L 2222 3053 
L 1275 3053 
L 1275 0 
L 697 0 
L 697 3053 
L 147 3053 
L 147 3500 
L 697 3500 
L 697 3744 
Q 697 4328 969 4595 
Q 1241 4863 1831 4863 
L 2375 4863 
z
" transform="scale(0.015625)"/>
     <path id="DejaVuSans-68" d="M 3513 2113 
L 3513 0 
L 2938 0 
L 2938 2094 
Q 2938 2591 2744 2837 
Q 2550 3084 2163 3084 
Q 1697 3084 1428 2787 
Q 1159 2491 1159 1978 
L 1159 0 
L 581 0 
L 581 4863 
L 1159 4863 
L 1159 2956 
Q 1366 3272 1645 3428 
Q 1925 3584 2291 3584 
Q 2894 3584 3203 3211 
Q 3513 2838 3513 2113 
z
" transform="scale(0.015625)"/>
    </defs>
    <use xlink:href="#DejaVuSans-43"/>
    <use xlink:href="#DejaVuSans-6f" transform="translate(69.824219 0)"/>
    <use xlink:href="#DejaVuSans-6d" transform="translate(131.005859 0)"/>
    <use xlink:href="#DejaVuSans-70" transform="translate(228.417969 0)"/>
    <use xlink:href="#DejaVuSans-61" transform="translate(291.894531 0)"/>
    <use xlink:href="#DejaVuSans-72" transform="translate(353.173828 0)"/>
    <use xlink:href="#DejaVuSans-69" transform="translate(394.287109 0)"/>
    <use xlink:href="#DejaVuSans-73" transform="translate(422.070312 0)"/>
    <use xlink:href="#DejaVuSans-6f" transform="translate(474.169922 0)"/>
    <use xlink:href="#DejaVuSans-6e" transform="translate(535.351562 0)"/>
    <use xlink:href="#DejaVuSans-20" transform="translate(598.730469 0)"/>
    <use xlink:href="#DejaVuSans-6f" transform="translate(630.517578 0)"/>
    <use xlink:href="#DejaVuSans-66" transform="translate(691.699219 0)"/>
    <use xlink:href="#DejaVuSans-20" transform="translate(726.904297 0)"/>
    <use xlink:href="#DejaVuSans-74" transform="translate(758.691406 0)"/>
    <use xlink:href="#DejaVuSans-68" transform="translate(797.900391 0)"/>
    <use xlink:href="#DejaVuSans-65" transform="translate(861.279297 0)"/>
    <use xlink:href="#DejaVuSans-20" transform="translate(922.802734 0)"/>
    <use xlink:href="#DejaVuSans-65" transform="translate(954.589844 0)"/>
    <use xlink:href="#DejaVuSans-75" transform="translate(1016.113281 0)"/>
    <use xlink:href="#DejaVuSans-6c" transform="translate(1079.492188 0)"/>
    <use xlink:href="#DejaVuSans-65" transform="translate(1107.275391 0)"/>
    <use xlink:href="#DejaVuSans-72" transform="translate(1168.798828 0)"/>
    <use xlink:href="#DejaVuSans-20" transform="translate(1209.912109 0)"/>
    <use xlink:href="#DejaVuSans-61" transform="translate(1241.699219 0)"/>
    <use xlink:href="#DejaVuSans-6e" transform="translate(1302.978516 0)"/>
    <use xlink:href="#DejaVuSans-67" transform="translate(1366.357422 0)"/>
    <use xlink:href="#DejaVuSans-6c" transform="translate(1429.833984 0)"/>
    <use xlink:href="#DejaVuSans-65" transform="translate(1457.617188 0)"/>
    <use xlink:href="#DejaVuSans-73" transform="translate(1519.140625 0)"/>
    <use xlink:href="#DejaVuSans-20" transform="translate(1571.240234 0)"/>
    <use xlink:href="#DejaVuSans-6f" transform="translate(1603.027344 0)"/>
    <use xlink:href="#DejaVuSans-66" transform="translate(1664.208984 0)"/>
    <use xlink:href="#DejaVuSans-20" transform="translate(1699.414062 0)"/>
    <use xlink:href="#DejaVuSans-74" transform="translate(1731.201172 0)"/>
    <use xlink:href="#DejaVuSans-68" transform="translate(1770.410156 0)"/>
    <use xlink:href="#DejaVuSans-65" transform="translate(1833.789062 0)"/>
    <use xlink:href="#DejaVuSans-20" transform="translate(1895.3125 0)"/>
    <use xlink:href="#DejaVuSans-66" transform="translate(1927.099609 0)"/>
    <use xlink:href="#DejaVuSans-6c" transform="translate(1962.304688 0)"/>
    <use xlink:href="#DejaVuSans-69" transform="translate(1990.087891 0)"/>
    <use xlink:href="#DejaVuSans-67" transform="translate(2017.871094 0)"/>
    <use xlink:href="#DejaVuSans-68" transform="translate(2081.347656 0)"/>
    <use xlink:href="#DejaVuSans-74" transform="translate(2144.726562 0)"/>
    <use xlink:href="#DejaVuSans-73" transform="translate(2183.935547 0)"/>
   </g>
  </g>
 </g>
 <defs>
  <clipPath id="pdcf5c4644e">
   <rect x="59.24" y="36" width="433.96" height="184.42299"/>
  </clipPath>
  <clipPath id="p4c9a2e647f">
   <rect x="59.24" y="264.808505" width="433.96" height="184.42299"/>
  </clipPath>
  <clipPath id="pc95485fc65">
   <rect x="59.24" y="493.61701" width="433.96" height="184.42299"/>
  </clipPath>
 </defs>
</svg>
